<svg xmlns="http://www.w3.org/2000/svg" xmlns:xlink="http://www.w3.org/1999/xlink" width="185" height="660" viewBox="0 0 185 660">
  <defs>
    <clipPath id="clip-path">
      <rect width="508" height="185" fill="none"/>
    </clipPath>
  </defs>
  <g id="Group_41" data-name="Group 41" transform="translate(-1735.5 -3766.5)">
    <g id="Repeat_Grid_12" data-name="Repeat Grid 12" transform="translate(1920.5 3766.5) rotate(90)" clip-path="url(#clip-path)">
      <g transform="translate(-277 -641)">
        <circle id="Ellipse_6" data-name="Ellipse 6" cx="2" cy="2" r="2" transform="translate(277 641)" fill="#e98d90"/>
      </g>
      <g transform="translate(-257 -641)">
        <circle id="Ellipse_6-2" data-name="Ellipse 6" cx="2" cy="2" r="2" transform="translate(277 641)" fill="#e98d90"/>
      </g>
      <g transform="translate(-237 -641)">
        <circle id="Ellipse_6-3" data-name="Ellipse 6" cx="2" cy="2" r="2" transform="translate(277 641)" fill="#e98d90"/>
      </g>
      <g transform="translate(-217 -641)">
        <circle id="Ellipse_6-4" data-name="Ellipse 6" cx="2" cy="2" r="2" transform="translate(277 641)" fill="#e98d90"/>
      </g>
      <g transform="translate(-197 -641)">
        <circle id="Ellipse_6-5" data-name="Ellipse 6" cx="2" cy="2" r="2" transform="translate(277 641)" fill="#e98d90"/>
      </g>
      <g transform="translate(-177 -641)">
        <circle id="Ellipse_6-6" data-name="Ellipse 6" cx="2" cy="2" r="2" transform="translate(277 641)" fill="#e98d90"/>
      </g>
      <g transform="translate(-157 -641)">
        <circle id="Ellipse_6-7" data-name="Ellipse 6" cx="2" cy="2" r="2" transform="translate(277 641)" fill="#e98d90"/>
      </g>
      <g transform="translate(-137 -641)">
        <circle id="Ellipse_6-8" data-name="Ellipse 6" cx="2" cy="2" r="2" transform="translate(277 641)" fill="#e98d90"/>
      </g>
      <g transform="translate(-117 -641)">
        <circle id="Ellipse_6-9" data-name="Ellipse 6" cx="2" cy="2" r="2" transform="translate(277 641)" fill="#e98d90"/>
      </g>
      <g transform="translate(-97 -641)">
        <circle id="Ellipse_6-10" data-name="Ellipse 6" cx="2" cy="2" r="2" transform="translate(277 641)" fill="#e98d90"/>
      </g>
      <g transform="translate(-77 -641)">
        <circle id="Ellipse_6-11" data-name="Ellipse 6" cx="2" cy="2" r="2" transform="translate(277 641)" fill="#e98d90"/>
      </g>
      <g transform="translate(-57 -641)">
        <circle id="Ellipse_6-12" data-name="Ellipse 6" cx="2" cy="2" r="2" transform="translate(277 641)" fill="#e98d90"/>
      </g>
      <g transform="translate(-37 -641)">
        <circle id="Ellipse_6-13" data-name="Ellipse 6" cx="2" cy="2" r="2" transform="translate(277 641)" fill="#e98d90"/>
      </g>
      <g transform="translate(-17 -641)">
        <circle id="Ellipse_6-14" data-name="Ellipse 6" cx="2" cy="2" r="2" transform="translate(277 641)" fill="#e98d90"/>
      </g>
      <g transform="translate(3 -641)">
        <circle id="Ellipse_6-15" data-name="Ellipse 6" cx="2" cy="2" r="2" transform="translate(277 641)" fill="#e98d90"/>
      </g>
      <g transform="translate(23 -641)">
        <circle id="Ellipse_6-16" data-name="Ellipse 6" cx="2" cy="2" r="2" transform="translate(277 641)" fill="#e98d90"/>
      </g>
      <g transform="translate(43 -641)">
        <circle id="Ellipse_6-17" data-name="Ellipse 6" cx="2" cy="2" r="2" transform="translate(277 641)" fill="#e98d90"/>
      </g>
      <g transform="translate(63 -641)">
        <circle id="Ellipse_6-18" data-name="Ellipse 6" cx="2" cy="2" r="2" transform="translate(277 641)" fill="#e98d90"/>
      </g>
      <g transform="translate(83 -641)">
        <circle id="Ellipse_6-19" data-name="Ellipse 6" cx="2" cy="2" r="2" transform="translate(277 641)" fill="#e98d90"/>
      </g>
      <g transform="translate(103 -641)">
        <circle id="Ellipse_6-20" data-name="Ellipse 6" cx="2" cy="2" r="2" transform="translate(277 641)" fill="#e98d90"/>
      </g>
      <g transform="translate(123 -641)">
        <circle id="Ellipse_6-21" data-name="Ellipse 6" cx="2" cy="2" r="2" transform="translate(277 641)" fill="#e98d90"/>
      </g>
      <g transform="translate(143 -641)">
        <circle id="Ellipse_6-22" data-name="Ellipse 6" cx="2" cy="2" r="2" transform="translate(277 641)" fill="#e98d90"/>
      </g>
      <g transform="translate(163 -641)">
        <circle id="Ellipse_6-23" data-name="Ellipse 6" cx="2" cy="2" r="2" transform="translate(277 641)" fill="#e98d90"/>
      </g>
      <g transform="translate(183 -641)">
        <circle id="Ellipse_6-24" data-name="Ellipse 6" cx="2" cy="2" r="2" transform="translate(277 641)" fill="#e98d90"/>
      </g>
      <g transform="translate(203 -641)">
        <circle id="Ellipse_6-25" data-name="Ellipse 6" cx="2" cy="2" r="2" transform="translate(277 641)" fill="#e98d90"/>
      </g>
      <g transform="translate(223 -641)">
        <circle id="Ellipse_6-26" data-name="Ellipse 6" cx="2" cy="2" r="2" transform="translate(277 641)" fill="#e98d90"/>
      </g>
      <g transform="translate(-277 -621)">
        <circle id="Ellipse_6-27" data-name="Ellipse 6" cx="2" cy="2" r="2" transform="translate(277 641)" fill="#e98d90"/>
      </g>
      <g transform="translate(-257 -621)">
        <circle id="Ellipse_6-28" data-name="Ellipse 6" cx="2" cy="2" r="2" transform="translate(277 641)" fill="#e98d90"/>
      </g>
      <g transform="translate(-237 -621)">
        <circle id="Ellipse_6-29" data-name="Ellipse 6" cx="2" cy="2" r="2" transform="translate(277 641)" fill="#e98d90"/>
      </g>
      <g transform="translate(-217 -621)">
        <circle id="Ellipse_6-30" data-name="Ellipse 6" cx="2" cy="2" r="2" transform="translate(277 641)" fill="#e98d90"/>
      </g>
      <g transform="translate(-197 -621)">
        <circle id="Ellipse_6-31" data-name="Ellipse 6" cx="2" cy="2" r="2" transform="translate(277 641)" fill="#e98d90"/>
      </g>
      <g transform="translate(-177 -621)">
        <circle id="Ellipse_6-32" data-name="Ellipse 6" cx="2" cy="2" r="2" transform="translate(277 641)" fill="#e98d90"/>
      </g>
      <g transform="translate(-157 -621)">
        <circle id="Ellipse_6-33" data-name="Ellipse 6" cx="2" cy="2" r="2" transform="translate(277 641)" fill="#e98d90"/>
      </g>
      <g transform="translate(-137 -621)">
        <circle id="Ellipse_6-34" data-name="Ellipse 6" cx="2" cy="2" r="2" transform="translate(277 641)" fill="#e98d90"/>
      </g>
      <g transform="translate(-117 -621)">
        <circle id="Ellipse_6-35" data-name="Ellipse 6" cx="2" cy="2" r="2" transform="translate(277 641)" fill="#e98d90"/>
      </g>
      <g transform="translate(-97 -621)">
        <circle id="Ellipse_6-36" data-name="Ellipse 6" cx="2" cy="2" r="2" transform="translate(277 641)" fill="#e98d90"/>
      </g>
      <g transform="translate(-77 -621)">
        <circle id="Ellipse_6-37" data-name="Ellipse 6" cx="2" cy="2" r="2" transform="translate(277 641)" fill="#e98d90"/>
      </g>
      <g transform="translate(-57 -621)">
        <circle id="Ellipse_6-38" data-name="Ellipse 6" cx="2" cy="2" r="2" transform="translate(277 641)" fill="#e98d90"/>
      </g>
      <g transform="translate(-37 -621)">
        <circle id="Ellipse_6-39" data-name="Ellipse 6" cx="2" cy="2" r="2" transform="translate(277 641)" fill="#e98d90"/>
      </g>
      <g transform="translate(-17 -621)">
        <circle id="Ellipse_6-40" data-name="Ellipse 6" cx="2" cy="2" r="2" transform="translate(277 641)" fill="#e98d90"/>
      </g>
      <g transform="translate(3 -621)">
        <circle id="Ellipse_6-41" data-name="Ellipse 6" cx="2" cy="2" r="2" transform="translate(277 641)" fill="#e98d90"/>
      </g>
      <g transform="translate(23 -621)">
        <circle id="Ellipse_6-42" data-name="Ellipse 6" cx="2" cy="2" r="2" transform="translate(277 641)" fill="#e98d90"/>
      </g>
      <g transform="translate(43 -621)">
        <circle id="Ellipse_6-43" data-name="Ellipse 6" cx="2" cy="2" r="2" transform="translate(277 641)" fill="#e98d90"/>
      </g>
      <g transform="translate(63 -621)">
        <circle id="Ellipse_6-44" data-name="Ellipse 6" cx="2" cy="2" r="2" transform="translate(277 641)" fill="#e98d90"/>
      </g>
      <g transform="translate(83 -621)">
        <circle id="Ellipse_6-45" data-name="Ellipse 6" cx="2" cy="2" r="2" transform="translate(277 641)" fill="#e98d90"/>
      </g>
      <g transform="translate(103 -621)">
        <circle id="Ellipse_6-46" data-name="Ellipse 6" cx="2" cy="2" r="2" transform="translate(277 641)" fill="#e98d90"/>
      </g>
      <g transform="translate(123 -621)">
        <circle id="Ellipse_6-47" data-name="Ellipse 6" cx="2" cy="2" r="2" transform="translate(277 641)" fill="#e98d90"/>
      </g>
      <g transform="translate(143 -621)">
        <circle id="Ellipse_6-48" data-name="Ellipse 6" cx="2" cy="2" r="2" transform="translate(277 641)" fill="#e98d90"/>
      </g>
      <g transform="translate(163 -621)">
        <circle id="Ellipse_6-49" data-name="Ellipse 6" cx="2" cy="2" r="2" transform="translate(277 641)" fill="#e98d90"/>
      </g>
      <g transform="translate(183 -621)">
        <circle id="Ellipse_6-50" data-name="Ellipse 6" cx="2" cy="2" r="2" transform="translate(277 641)" fill="#e98d90"/>
      </g>
      <g transform="translate(203 -621)">
        <circle id="Ellipse_6-51" data-name="Ellipse 6" cx="2" cy="2" r="2" transform="translate(277 641)" fill="#e98d90"/>
      </g>
      <g transform="translate(223 -621)">
        <circle id="Ellipse_6-52" data-name="Ellipse 6" cx="2" cy="2" r="2" transform="translate(277 641)" fill="#e98d90"/>
      </g>
      <g transform="translate(-277 -601)">
        <circle id="Ellipse_6-53" data-name="Ellipse 6" cx="2" cy="2" r="2" transform="translate(277 641)" fill="#e98d90"/>
      </g>
      <g transform="translate(-257 -601)">
        <circle id="Ellipse_6-54" data-name="Ellipse 6" cx="2" cy="2" r="2" transform="translate(277 641)" fill="#e98d90"/>
      </g>
      <g transform="translate(-237 -601)">
        <circle id="Ellipse_6-55" data-name="Ellipse 6" cx="2" cy="2" r="2" transform="translate(277 641)" fill="#e98d90"/>
      </g>
      <g transform="translate(-217 -601)">
        <circle id="Ellipse_6-56" data-name="Ellipse 6" cx="2" cy="2" r="2" transform="translate(277 641)" fill="#e98d90"/>
      </g>
      <g transform="translate(-197 -601)">
        <circle id="Ellipse_6-57" data-name="Ellipse 6" cx="2" cy="2" r="2" transform="translate(277 641)" fill="#e98d90"/>
      </g>
      <g transform="translate(-177 -601)">
        <circle id="Ellipse_6-58" data-name="Ellipse 6" cx="2" cy="2" r="2" transform="translate(277 641)" fill="#e98d90"/>
      </g>
      <g transform="translate(-157 -601)">
        <circle id="Ellipse_6-59" data-name="Ellipse 6" cx="2" cy="2" r="2" transform="translate(277 641)" fill="#e98d90"/>
      </g>
      <g transform="translate(-137 -601)">
        <circle id="Ellipse_6-60" data-name="Ellipse 6" cx="2" cy="2" r="2" transform="translate(277 641)" fill="#e98d90"/>
      </g>
      <g transform="translate(-117 -601)">
        <circle id="Ellipse_6-61" data-name="Ellipse 6" cx="2" cy="2" r="2" transform="translate(277 641)" fill="#e98d90"/>
      </g>
      <g transform="translate(-97 -601)">
        <circle id="Ellipse_6-62" data-name="Ellipse 6" cx="2" cy="2" r="2" transform="translate(277 641)" fill="#e98d90"/>
      </g>
      <g transform="translate(-77 -601)">
        <circle id="Ellipse_6-63" data-name="Ellipse 6" cx="2" cy="2" r="2" transform="translate(277 641)" fill="#e98d90"/>
      </g>
      <g transform="translate(-57 -601)">
        <circle id="Ellipse_6-64" data-name="Ellipse 6" cx="2" cy="2" r="2" transform="translate(277 641)" fill="#e98d90"/>
      </g>
      <g transform="translate(-37 -601)">
        <circle id="Ellipse_6-65" data-name="Ellipse 6" cx="2" cy="2" r="2" transform="translate(277 641)" fill="#e98d90"/>
      </g>
      <g transform="translate(-17 -601)">
        <circle id="Ellipse_6-66" data-name="Ellipse 6" cx="2" cy="2" r="2" transform="translate(277 641)" fill="#e98d90"/>
      </g>
      <g transform="translate(3 -601)">
        <circle id="Ellipse_6-67" data-name="Ellipse 6" cx="2" cy="2" r="2" transform="translate(277 641)" fill="#e98d90"/>
      </g>
      <g transform="translate(23 -601)">
        <circle id="Ellipse_6-68" data-name="Ellipse 6" cx="2" cy="2" r="2" transform="translate(277 641)" fill="#e98d90"/>
      </g>
      <g transform="translate(43 -601)">
        <circle id="Ellipse_6-69" data-name="Ellipse 6" cx="2" cy="2" r="2" transform="translate(277 641)" fill="#e98d90"/>
      </g>
      <g transform="translate(63 -601)">
        <circle id="Ellipse_6-70" data-name="Ellipse 6" cx="2" cy="2" r="2" transform="translate(277 641)" fill="#e98d90"/>
      </g>
      <g transform="translate(83 -601)">
        <circle id="Ellipse_6-71" data-name="Ellipse 6" cx="2" cy="2" r="2" transform="translate(277 641)" fill="#e98d90"/>
      </g>
      <g transform="translate(103 -601)">
        <circle id="Ellipse_6-72" data-name="Ellipse 6" cx="2" cy="2" r="2" transform="translate(277 641)" fill="#e98d90"/>
      </g>
      <g transform="translate(123 -601)">
        <circle id="Ellipse_6-73" data-name="Ellipse 6" cx="2" cy="2" r="2" transform="translate(277 641)" fill="#e98d90"/>
      </g>
      <g transform="translate(143 -601)">
        <circle id="Ellipse_6-74" data-name="Ellipse 6" cx="2" cy="2" r="2" transform="translate(277 641)" fill="#e98d90"/>
      </g>
      <g transform="translate(163 -601)">
        <circle id="Ellipse_6-75" data-name="Ellipse 6" cx="2" cy="2" r="2" transform="translate(277 641)" fill="#e98d90"/>
      </g>
      <g transform="translate(183 -601)">
        <circle id="Ellipse_6-76" data-name="Ellipse 6" cx="2" cy="2" r="2" transform="translate(277 641)" fill="#e98d90"/>
      </g>
      <g transform="translate(203 -601)">
        <circle id="Ellipse_6-77" data-name="Ellipse 6" cx="2" cy="2" r="2" transform="translate(277 641)" fill="#e98d90"/>
      </g>
      <g transform="translate(223 -601)">
        <circle id="Ellipse_6-78" data-name="Ellipse 6" cx="2" cy="2" r="2" transform="translate(277 641)" fill="#e98d90"/>
      </g>
      <g transform="translate(-277 -581)">
        <circle id="Ellipse_6-79" data-name="Ellipse 6" cx="2" cy="2" r="2" transform="translate(277 641)" fill="#e98d90"/>
      </g>
      <g transform="translate(-257 -581)">
        <circle id="Ellipse_6-80" data-name="Ellipse 6" cx="2" cy="2" r="2" transform="translate(277 641)" fill="#e98d90"/>
      </g>
      <g transform="translate(-237 -581)">
        <circle id="Ellipse_6-81" data-name="Ellipse 6" cx="2" cy="2" r="2" transform="translate(277 641)" fill="#e98d90"/>
      </g>
      <g transform="translate(-217 -581)">
        <circle id="Ellipse_6-82" data-name="Ellipse 6" cx="2" cy="2" r="2" transform="translate(277 641)" fill="#e98d90"/>
      </g>
      <g transform="translate(-197 -581)">
        <circle id="Ellipse_6-83" data-name="Ellipse 6" cx="2" cy="2" r="2" transform="translate(277 641)" fill="#e98d90"/>
      </g>
      <g transform="translate(-177 -581)">
        <circle id="Ellipse_6-84" data-name="Ellipse 6" cx="2" cy="2" r="2" transform="translate(277 641)" fill="#e98d90"/>
      </g>
      <g transform="translate(-157 -581)">
        <circle id="Ellipse_6-85" data-name="Ellipse 6" cx="2" cy="2" r="2" transform="translate(277 641)" fill="#e98d90"/>
      </g>
      <g transform="translate(-137 -581)">
        <circle id="Ellipse_6-86" data-name="Ellipse 6" cx="2" cy="2" r="2" transform="translate(277 641)" fill="#e98d90"/>
      </g>
      <g transform="translate(-117 -581)">
        <circle id="Ellipse_6-87" data-name="Ellipse 6" cx="2" cy="2" r="2" transform="translate(277 641)" fill="#e98d90"/>
      </g>
      <g transform="translate(-97 -581)">
        <circle id="Ellipse_6-88" data-name="Ellipse 6" cx="2" cy="2" r="2" transform="translate(277 641)" fill="#e98d90"/>
      </g>
      <g transform="translate(-77 -581)">
        <circle id="Ellipse_6-89" data-name="Ellipse 6" cx="2" cy="2" r="2" transform="translate(277 641)" fill="#e98d90"/>
      </g>
      <g transform="translate(-57 -581)">
        <circle id="Ellipse_6-90" data-name="Ellipse 6" cx="2" cy="2" r="2" transform="translate(277 641)" fill="#e98d90"/>
      </g>
      <g transform="translate(-37 -581)">
        <circle id="Ellipse_6-91" data-name="Ellipse 6" cx="2" cy="2" r="2" transform="translate(277 641)" fill="#e98d90"/>
      </g>
      <g transform="translate(-17 -581)">
        <circle id="Ellipse_6-92" data-name="Ellipse 6" cx="2" cy="2" r="2" transform="translate(277 641)" fill="#e98d90"/>
      </g>
      <g transform="translate(3 -581)">
        <circle id="Ellipse_6-93" data-name="Ellipse 6" cx="2" cy="2" r="2" transform="translate(277 641)" fill="#e98d90"/>
      </g>
      <g transform="translate(23 -581)">
        <circle id="Ellipse_6-94" data-name="Ellipse 6" cx="2" cy="2" r="2" transform="translate(277 641)" fill="#e98d90"/>
      </g>
      <g transform="translate(43 -581)">
        <circle id="Ellipse_6-95" data-name="Ellipse 6" cx="2" cy="2" r="2" transform="translate(277 641)" fill="#e98d90"/>
      </g>
      <g transform="translate(63 -581)">
        <circle id="Ellipse_6-96" data-name="Ellipse 6" cx="2" cy="2" r="2" transform="translate(277 641)" fill="#e98d90"/>
      </g>
      <g transform="translate(83 -581)">
        <circle id="Ellipse_6-97" data-name="Ellipse 6" cx="2" cy="2" r="2" transform="translate(277 641)" fill="#e98d90"/>
      </g>
      <g transform="translate(103 -581)">
        <circle id="Ellipse_6-98" data-name="Ellipse 6" cx="2" cy="2" r="2" transform="translate(277 641)" fill="#e98d90"/>
      </g>
      <g transform="translate(123 -581)">
        <circle id="Ellipse_6-99" data-name="Ellipse 6" cx="2" cy="2" r="2" transform="translate(277 641)" fill="#e98d90"/>
      </g>
      <g transform="translate(143 -581)">
        <circle id="Ellipse_6-100" data-name="Ellipse 6" cx="2" cy="2" r="2" transform="translate(277 641)" fill="#e98d90"/>
      </g>
      <g transform="translate(163 -581)">
        <circle id="Ellipse_6-101" data-name="Ellipse 6" cx="2" cy="2" r="2" transform="translate(277 641)" fill="#e98d90"/>
      </g>
      <g transform="translate(183 -581)">
        <circle id="Ellipse_6-102" data-name="Ellipse 6" cx="2" cy="2" r="2" transform="translate(277 641)" fill="#e98d90"/>
      </g>
      <g transform="translate(203 -581)">
        <circle id="Ellipse_6-103" data-name="Ellipse 6" cx="2" cy="2" r="2" transform="translate(277 641)" fill="#e98d90"/>
      </g>
      <g transform="translate(223 -581)">
        <circle id="Ellipse_6-104" data-name="Ellipse 6" cx="2" cy="2" r="2" transform="translate(277 641)" fill="#e98d90"/>
      </g>
      <g transform="translate(-277 -561)">
        <circle id="Ellipse_6-105" data-name="Ellipse 6" cx="2" cy="2" r="2" transform="translate(277 641)" fill="#e98d90"/>
      </g>
      <g transform="translate(-257 -561)">
        <circle id="Ellipse_6-106" data-name="Ellipse 6" cx="2" cy="2" r="2" transform="translate(277 641)" fill="#e98d90"/>
      </g>
      <g transform="translate(-237 -561)">
        <circle id="Ellipse_6-107" data-name="Ellipse 6" cx="2" cy="2" r="2" transform="translate(277 641)" fill="#e98d90"/>
      </g>
      <g transform="translate(-217 -561)">
        <circle id="Ellipse_6-108" data-name="Ellipse 6" cx="2" cy="2" r="2" transform="translate(277 641)" fill="#e98d90"/>
      </g>
      <g transform="translate(-197 -561)">
        <circle id="Ellipse_6-109" data-name="Ellipse 6" cx="2" cy="2" r="2" transform="translate(277 641)" fill="#e98d90"/>
      </g>
      <g transform="translate(-177 -561)">
        <circle id="Ellipse_6-110" data-name="Ellipse 6" cx="2" cy="2" r="2" transform="translate(277 641)" fill="#e98d90"/>
      </g>
      <g transform="translate(-157 -561)">
        <circle id="Ellipse_6-111" data-name="Ellipse 6" cx="2" cy="2" r="2" transform="translate(277 641)" fill="#e98d90"/>
      </g>
      <g transform="translate(-137 -561)">
        <circle id="Ellipse_6-112" data-name="Ellipse 6" cx="2" cy="2" r="2" transform="translate(277 641)" fill="#e98d90"/>
      </g>
      <g transform="translate(-117 -561)">
        <circle id="Ellipse_6-113" data-name="Ellipse 6" cx="2" cy="2" r="2" transform="translate(277 641)" fill="#e98d90"/>
      </g>
      <g transform="translate(-97 -561)">
        <circle id="Ellipse_6-114" data-name="Ellipse 6" cx="2" cy="2" r="2" transform="translate(277 641)" fill="#e98d90"/>
      </g>
      <g transform="translate(-77 -561)">
        <circle id="Ellipse_6-115" data-name="Ellipse 6" cx="2" cy="2" r="2" transform="translate(277 641)" fill="#e98d90"/>
      </g>
      <g transform="translate(-57 -561)">
        <circle id="Ellipse_6-116" data-name="Ellipse 6" cx="2" cy="2" r="2" transform="translate(277 641)" fill="#e98d90"/>
      </g>
      <g transform="translate(-37 -561)">
        <circle id="Ellipse_6-117" data-name="Ellipse 6" cx="2" cy="2" r="2" transform="translate(277 641)" fill="#e98d90"/>
      </g>
      <g transform="translate(-17 -561)">
        <circle id="Ellipse_6-118" data-name="Ellipse 6" cx="2" cy="2" r="2" transform="translate(277 641)" fill="#e98d90"/>
      </g>
      <g transform="translate(3 -561)">
        <circle id="Ellipse_6-119" data-name="Ellipse 6" cx="2" cy="2" r="2" transform="translate(277 641)" fill="#e98d90"/>
      </g>
      <g transform="translate(23 -561)">
        <circle id="Ellipse_6-120" data-name="Ellipse 6" cx="2" cy="2" r="2" transform="translate(277 641)" fill="#e98d90"/>
      </g>
      <g transform="translate(43 -561)">
        <circle id="Ellipse_6-121" data-name="Ellipse 6" cx="2" cy="2" r="2" transform="translate(277 641)" fill="#e98d90"/>
      </g>
      <g transform="translate(63 -561)">
        <circle id="Ellipse_6-122" data-name="Ellipse 6" cx="2" cy="2" r="2" transform="translate(277 641)" fill="#e98d90"/>
      </g>
      <g transform="translate(83 -561)">
        <circle id="Ellipse_6-123" data-name="Ellipse 6" cx="2" cy="2" r="2" transform="translate(277 641)" fill="#e98d90"/>
      </g>
      <g transform="translate(103 -561)">
        <circle id="Ellipse_6-124" data-name="Ellipse 6" cx="2" cy="2" r="2" transform="translate(277 641)" fill="#e98d90"/>
      </g>
      <g transform="translate(123 -561)">
        <circle id="Ellipse_6-125" data-name="Ellipse 6" cx="2" cy="2" r="2" transform="translate(277 641)" fill="#e98d90"/>
      </g>
      <g transform="translate(143 -561)">
        <circle id="Ellipse_6-126" data-name="Ellipse 6" cx="2" cy="2" r="2" transform="translate(277 641)" fill="#e98d90"/>
      </g>
      <g transform="translate(163 -561)">
        <circle id="Ellipse_6-127" data-name="Ellipse 6" cx="2" cy="2" r="2" transform="translate(277 641)" fill="#e98d90"/>
      </g>
      <g transform="translate(183 -561)">
        <circle id="Ellipse_6-128" data-name="Ellipse 6" cx="2" cy="2" r="2" transform="translate(277 641)" fill="#e98d90"/>
      </g>
      <g transform="translate(203 -561)">
        <circle id="Ellipse_6-129" data-name="Ellipse 6" cx="2" cy="2" r="2" transform="translate(277 641)" fill="#e98d90"/>
      </g>
      <g transform="translate(223 -561)">
        <circle id="Ellipse_6-130" data-name="Ellipse 6" cx="2" cy="2" r="2" transform="translate(277 641)" fill="#e98d90"/>
      </g>
      <g transform="translate(-277 -541)">
        <circle id="Ellipse_6-131" data-name="Ellipse 6" cx="2" cy="2" r="2" transform="translate(277 641)" fill="#e98d90"/>
      </g>
      <g transform="translate(-257 -541)">
        <circle id="Ellipse_6-132" data-name="Ellipse 6" cx="2" cy="2" r="2" transform="translate(277 641)" fill="#e98d90"/>
      </g>
      <g transform="translate(-237 -541)">
        <circle id="Ellipse_6-133" data-name="Ellipse 6" cx="2" cy="2" r="2" transform="translate(277 641)" fill="#e98d90"/>
      </g>
      <g transform="translate(-217 -541)">
        <circle id="Ellipse_6-134" data-name="Ellipse 6" cx="2" cy="2" r="2" transform="translate(277 641)" fill="#e98d90"/>
      </g>
      <g transform="translate(-197 -541)">
        <circle id="Ellipse_6-135" data-name="Ellipse 6" cx="2" cy="2" r="2" transform="translate(277 641)" fill="#e98d90"/>
      </g>
      <g transform="translate(-177 -541)">
        <circle id="Ellipse_6-136" data-name="Ellipse 6" cx="2" cy="2" r="2" transform="translate(277 641)" fill="#e98d90"/>
      </g>
      <g transform="translate(-157 -541)">
        <circle id="Ellipse_6-137" data-name="Ellipse 6" cx="2" cy="2" r="2" transform="translate(277 641)" fill="#e98d90"/>
      </g>
      <g transform="translate(-137 -541)">
        <circle id="Ellipse_6-138" data-name="Ellipse 6" cx="2" cy="2" r="2" transform="translate(277 641)" fill="#e98d90"/>
      </g>
      <g transform="translate(-117 -541)">
        <circle id="Ellipse_6-139" data-name="Ellipse 6" cx="2" cy="2" r="2" transform="translate(277 641)" fill="#e98d90"/>
      </g>
      <g transform="translate(-97 -541)">
        <circle id="Ellipse_6-140" data-name="Ellipse 6" cx="2" cy="2" r="2" transform="translate(277 641)" fill="#e98d90"/>
      </g>
      <g transform="translate(-77 -541)">
        <circle id="Ellipse_6-141" data-name="Ellipse 6" cx="2" cy="2" r="2" transform="translate(277 641)" fill="#e98d90"/>
      </g>
      <g transform="translate(-57 -541)">
        <circle id="Ellipse_6-142" data-name="Ellipse 6" cx="2" cy="2" r="2" transform="translate(277 641)" fill="#e98d90"/>
      </g>
      <g transform="translate(-37 -541)">
        <circle id="Ellipse_6-143" data-name="Ellipse 6" cx="2" cy="2" r="2" transform="translate(277 641)" fill="#e98d90"/>
      </g>
      <g transform="translate(-17 -541)">
        <circle id="Ellipse_6-144" data-name="Ellipse 6" cx="2" cy="2" r="2" transform="translate(277 641)" fill="#e98d90"/>
      </g>
      <g transform="translate(3 -541)">
        <circle id="Ellipse_6-145" data-name="Ellipse 6" cx="2" cy="2" r="2" transform="translate(277 641)" fill="#e98d90"/>
      </g>
      <g transform="translate(23 -541)">
        <circle id="Ellipse_6-146" data-name="Ellipse 6" cx="2" cy="2" r="2" transform="translate(277 641)" fill="#e98d90"/>
      </g>
      <g transform="translate(43 -541)">
        <circle id="Ellipse_6-147" data-name="Ellipse 6" cx="2" cy="2" r="2" transform="translate(277 641)" fill="#e98d90"/>
      </g>
      <g transform="translate(63 -541)">
        <circle id="Ellipse_6-148" data-name="Ellipse 6" cx="2" cy="2" r="2" transform="translate(277 641)" fill="#e98d90"/>
      </g>
      <g transform="translate(83 -541)">
        <circle id="Ellipse_6-149" data-name="Ellipse 6" cx="2" cy="2" r="2" transform="translate(277 641)" fill="#e98d90"/>
      </g>
      <g transform="translate(103 -541)">
        <circle id="Ellipse_6-150" data-name="Ellipse 6" cx="2" cy="2" r="2" transform="translate(277 641)" fill="#e98d90"/>
      </g>
      <g transform="translate(123 -541)">
        <circle id="Ellipse_6-151" data-name="Ellipse 6" cx="2" cy="2" r="2" transform="translate(277 641)" fill="#e98d90"/>
      </g>
      <g transform="translate(143 -541)">
        <circle id="Ellipse_6-152" data-name="Ellipse 6" cx="2" cy="2" r="2" transform="translate(277 641)" fill="#e98d90"/>
      </g>
      <g transform="translate(163 -541)">
        <circle id="Ellipse_6-153" data-name="Ellipse 6" cx="2" cy="2" r="2" transform="translate(277 641)" fill="#e98d90"/>
      </g>
      <g transform="translate(183 -541)">
        <circle id="Ellipse_6-154" data-name="Ellipse 6" cx="2" cy="2" r="2" transform="translate(277 641)" fill="#e98d90"/>
      </g>
      <g transform="translate(203 -541)">
        <circle id="Ellipse_6-155" data-name="Ellipse 6" cx="2" cy="2" r="2" transform="translate(277 641)" fill="#e98d90"/>
      </g>
      <g transform="translate(223 -541)">
        <circle id="Ellipse_6-156" data-name="Ellipse 6" cx="2" cy="2" r="2" transform="translate(277 641)" fill="#e98d90"/>
      </g>
      <g transform="translate(-277 -521)">
        <circle id="Ellipse_6-157" data-name="Ellipse 6" cx="2" cy="2" r="2" transform="translate(277 641)" fill="#e98d90"/>
      </g>
      <g transform="translate(-257 -521)">
        <circle id="Ellipse_6-158" data-name="Ellipse 6" cx="2" cy="2" r="2" transform="translate(277 641)" fill="#e98d90"/>
      </g>
      <g transform="translate(-237 -521)">
        <circle id="Ellipse_6-159" data-name="Ellipse 6" cx="2" cy="2" r="2" transform="translate(277 641)" fill="#e98d90"/>
      </g>
      <g transform="translate(-217 -521)">
        <circle id="Ellipse_6-160" data-name="Ellipse 6" cx="2" cy="2" r="2" transform="translate(277 641)" fill="#e98d90"/>
      </g>
      <g transform="translate(-197 -521)">
        <circle id="Ellipse_6-161" data-name="Ellipse 6" cx="2" cy="2" r="2" transform="translate(277 641)" fill="#e98d90"/>
      </g>
      <g transform="translate(-177 -521)">
        <circle id="Ellipse_6-162" data-name="Ellipse 6" cx="2" cy="2" r="2" transform="translate(277 641)" fill="#e98d90"/>
      </g>
      <g transform="translate(-157 -521)">
        <circle id="Ellipse_6-163" data-name="Ellipse 6" cx="2" cy="2" r="2" transform="translate(277 641)" fill="#e98d90"/>
      </g>
      <g transform="translate(-137 -521)">
        <circle id="Ellipse_6-164" data-name="Ellipse 6" cx="2" cy="2" r="2" transform="translate(277 641)" fill="#e98d90"/>
      </g>
      <g transform="translate(-117 -521)">
        <circle id="Ellipse_6-165" data-name="Ellipse 6" cx="2" cy="2" r="2" transform="translate(277 641)" fill="#e98d90"/>
      </g>
      <g transform="translate(-97 -521)">
        <circle id="Ellipse_6-166" data-name="Ellipse 6" cx="2" cy="2" r="2" transform="translate(277 641)" fill="#e98d90"/>
      </g>
      <g transform="translate(-77 -521)">
        <circle id="Ellipse_6-167" data-name="Ellipse 6" cx="2" cy="2" r="2" transform="translate(277 641)" fill="#e98d90"/>
      </g>
      <g transform="translate(-57 -521)">
        <circle id="Ellipse_6-168" data-name="Ellipse 6" cx="2" cy="2" r="2" transform="translate(277 641)" fill="#e98d90"/>
      </g>
      <g transform="translate(-37 -521)">
        <circle id="Ellipse_6-169" data-name="Ellipse 6" cx="2" cy="2" r="2" transform="translate(277 641)" fill="#e98d90"/>
      </g>
      <g transform="translate(-17 -521)">
        <circle id="Ellipse_6-170" data-name="Ellipse 6" cx="2" cy="2" r="2" transform="translate(277 641)" fill="#e98d90"/>
      </g>
      <g transform="translate(3 -521)">
        <circle id="Ellipse_6-171" data-name="Ellipse 6" cx="2" cy="2" r="2" transform="translate(277 641)" fill="#e98d90"/>
      </g>
      <g transform="translate(23 -521)">
        <circle id="Ellipse_6-172" data-name="Ellipse 6" cx="2" cy="2" r="2" transform="translate(277 641)" fill="#e98d90"/>
      </g>
      <g transform="translate(43 -521)">
        <circle id="Ellipse_6-173" data-name="Ellipse 6" cx="2" cy="2" r="2" transform="translate(277 641)" fill="#e98d90"/>
      </g>
      <g transform="translate(63 -521)">
        <circle id="Ellipse_6-174" data-name="Ellipse 6" cx="2" cy="2" r="2" transform="translate(277 641)" fill="#e98d90"/>
      </g>
      <g transform="translate(83 -521)">
        <circle id="Ellipse_6-175" data-name="Ellipse 6" cx="2" cy="2" r="2" transform="translate(277 641)" fill="#e98d90"/>
      </g>
      <g transform="translate(103 -521)">
        <circle id="Ellipse_6-176" data-name="Ellipse 6" cx="2" cy="2" r="2" transform="translate(277 641)" fill="#e98d90"/>
      </g>
      <g transform="translate(123 -521)">
        <circle id="Ellipse_6-177" data-name="Ellipse 6" cx="2" cy="2" r="2" transform="translate(277 641)" fill="#e98d90"/>
      </g>
      <g transform="translate(143 -521)">
        <circle id="Ellipse_6-178" data-name="Ellipse 6" cx="2" cy="2" r="2" transform="translate(277 641)" fill="#e98d90"/>
      </g>
      <g transform="translate(163 -521)">
        <circle id="Ellipse_6-179" data-name="Ellipse 6" cx="2" cy="2" r="2" transform="translate(277 641)" fill="#e98d90"/>
      </g>
      <g transform="translate(183 -521)">
        <circle id="Ellipse_6-180" data-name="Ellipse 6" cx="2" cy="2" r="2" transform="translate(277 641)" fill="#e98d90"/>
      </g>
      <g transform="translate(203 -521)">
        <circle id="Ellipse_6-181" data-name="Ellipse 6" cx="2" cy="2" r="2" transform="translate(277 641)" fill="#e98d90"/>
      </g>
      <g transform="translate(223 -521)">
        <circle id="Ellipse_6-182" data-name="Ellipse 6" cx="2" cy="2" r="2" transform="translate(277 641)" fill="#e98d90"/>
      </g>
      <g transform="translate(-277 -501)">
        <circle id="Ellipse_6-183" data-name="Ellipse 6" cx="2" cy="2" r="2" transform="translate(277 641)" fill="#e98d90"/>
      </g>
      <g transform="translate(-257 -501)">
        <circle id="Ellipse_6-184" data-name="Ellipse 6" cx="2" cy="2" r="2" transform="translate(277 641)" fill="#e98d90"/>
      </g>
      <g transform="translate(-237 -501)">
        <circle id="Ellipse_6-185" data-name="Ellipse 6" cx="2" cy="2" r="2" transform="translate(277 641)" fill="#e98d90"/>
      </g>
      <g transform="translate(-217 -501)">
        <circle id="Ellipse_6-186" data-name="Ellipse 6" cx="2" cy="2" r="2" transform="translate(277 641)" fill="#e98d90"/>
      </g>
      <g transform="translate(-197 -501)">
        <circle id="Ellipse_6-187" data-name="Ellipse 6" cx="2" cy="2" r="2" transform="translate(277 641)" fill="#e98d90"/>
      </g>
      <g transform="translate(-177 -501)">
        <circle id="Ellipse_6-188" data-name="Ellipse 6" cx="2" cy="2" r="2" transform="translate(277 641)" fill="#e98d90"/>
      </g>
      <g transform="translate(-157 -501)">
        <circle id="Ellipse_6-189" data-name="Ellipse 6" cx="2" cy="2" r="2" transform="translate(277 641)" fill="#e98d90"/>
      </g>
      <g transform="translate(-137 -501)">
        <circle id="Ellipse_6-190" data-name="Ellipse 6" cx="2" cy="2" r="2" transform="translate(277 641)" fill="#e98d90"/>
      </g>
      <g transform="translate(-117 -501)">
        <circle id="Ellipse_6-191" data-name="Ellipse 6" cx="2" cy="2" r="2" transform="translate(277 641)" fill="#e98d90"/>
      </g>
      <g transform="translate(-97 -501)">
        <circle id="Ellipse_6-192" data-name="Ellipse 6" cx="2" cy="2" r="2" transform="translate(277 641)" fill="#e98d90"/>
      </g>
      <g transform="translate(-77 -501)">
        <circle id="Ellipse_6-193" data-name="Ellipse 6" cx="2" cy="2" r="2" transform="translate(277 641)" fill="#e98d90"/>
      </g>
      <g transform="translate(-57 -501)">
        <circle id="Ellipse_6-194" data-name="Ellipse 6" cx="2" cy="2" r="2" transform="translate(277 641)" fill="#e98d90"/>
      </g>
      <g transform="translate(-37 -501)">
        <circle id="Ellipse_6-195" data-name="Ellipse 6" cx="2" cy="2" r="2" transform="translate(277 641)" fill="#e98d90"/>
      </g>
      <g transform="translate(-17 -501)">
        <circle id="Ellipse_6-196" data-name="Ellipse 6" cx="2" cy="2" r="2" transform="translate(277 641)" fill="#e98d90"/>
      </g>
      <g transform="translate(3 -501)">
        <circle id="Ellipse_6-197" data-name="Ellipse 6" cx="2" cy="2" r="2" transform="translate(277 641)" fill="#e98d90"/>
      </g>
      <g transform="translate(23 -501)">
        <circle id="Ellipse_6-198" data-name="Ellipse 6" cx="2" cy="2" r="2" transform="translate(277 641)" fill="#e98d90"/>
      </g>
      <g transform="translate(43 -501)">
        <circle id="Ellipse_6-199" data-name="Ellipse 6" cx="2" cy="2" r="2" transform="translate(277 641)" fill="#e98d90"/>
      </g>
      <g transform="translate(63 -501)">
        <circle id="Ellipse_6-200" data-name="Ellipse 6" cx="2" cy="2" r="2" transform="translate(277 641)" fill="#e98d90"/>
      </g>
      <g transform="translate(83 -501)">
        <circle id="Ellipse_6-201" data-name="Ellipse 6" cx="2" cy="2" r="2" transform="translate(277 641)" fill="#e98d90"/>
      </g>
      <g transform="translate(103 -501)">
        <circle id="Ellipse_6-202" data-name="Ellipse 6" cx="2" cy="2" r="2" transform="translate(277 641)" fill="#e98d90"/>
      </g>
      <g transform="translate(123 -501)">
        <circle id="Ellipse_6-203" data-name="Ellipse 6" cx="2" cy="2" r="2" transform="translate(277 641)" fill="#e98d90"/>
      </g>
      <g transform="translate(143 -501)">
        <circle id="Ellipse_6-204" data-name="Ellipse 6" cx="2" cy="2" r="2" transform="translate(277 641)" fill="#e98d90"/>
      </g>
      <g transform="translate(163 -501)">
        <circle id="Ellipse_6-205" data-name="Ellipse 6" cx="2" cy="2" r="2" transform="translate(277 641)" fill="#e98d90"/>
      </g>
      <g transform="translate(183 -501)">
        <circle id="Ellipse_6-206" data-name="Ellipse 6" cx="2" cy="2" r="2" transform="translate(277 641)" fill="#e98d90"/>
      </g>
      <g transform="translate(203 -501)">
        <circle id="Ellipse_6-207" data-name="Ellipse 6" cx="2" cy="2" r="2" transform="translate(277 641)" fill="#e98d90"/>
      </g>
      <g transform="translate(223 -501)">
        <circle id="Ellipse_6-208" data-name="Ellipse 6" cx="2" cy="2" r="2" transform="translate(277 641)" fill="#e98d90"/>
      </g>
      <g transform="translate(-277 -481)">
        <circle id="Ellipse_6-209" data-name="Ellipse 6" cx="2" cy="2" r="2" transform="translate(277 641)" fill="#e98d90"/>
      </g>
      <g transform="translate(-257 -481)">
        <circle id="Ellipse_6-210" data-name="Ellipse 6" cx="2" cy="2" r="2" transform="translate(277 641)" fill="#e98d90"/>
      </g>
      <g transform="translate(-237 -481)">
        <circle id="Ellipse_6-211" data-name="Ellipse 6" cx="2" cy="2" r="2" transform="translate(277 641)" fill="#e98d90"/>
      </g>
      <g transform="translate(-217 -481)">
        <circle id="Ellipse_6-212" data-name="Ellipse 6" cx="2" cy="2" r="2" transform="translate(277 641)" fill="#e98d90"/>
      </g>
      <g transform="translate(-197 -481)">
        <circle id="Ellipse_6-213" data-name="Ellipse 6" cx="2" cy="2" r="2" transform="translate(277 641)" fill="#e98d90"/>
      </g>
      <g transform="translate(-177 -481)">
        <circle id="Ellipse_6-214" data-name="Ellipse 6" cx="2" cy="2" r="2" transform="translate(277 641)" fill="#e98d90"/>
      </g>
      <g transform="translate(-157 -481)">
        <circle id="Ellipse_6-215" data-name="Ellipse 6" cx="2" cy="2" r="2" transform="translate(277 641)" fill="#e98d90"/>
      </g>
      <g transform="translate(-137 -481)">
        <circle id="Ellipse_6-216" data-name="Ellipse 6" cx="2" cy="2" r="2" transform="translate(277 641)" fill="#e98d90"/>
      </g>
      <g transform="translate(-117 -481)">
        <circle id="Ellipse_6-217" data-name="Ellipse 6" cx="2" cy="2" r="2" transform="translate(277 641)" fill="#e98d90"/>
      </g>
      <g transform="translate(-97 -481)">
        <circle id="Ellipse_6-218" data-name="Ellipse 6" cx="2" cy="2" r="2" transform="translate(277 641)" fill="#e98d90"/>
      </g>
      <g transform="translate(-77 -481)">
        <circle id="Ellipse_6-219" data-name="Ellipse 6" cx="2" cy="2" r="2" transform="translate(277 641)" fill="#e98d90"/>
      </g>
      <g transform="translate(-57 -481)">
        <circle id="Ellipse_6-220" data-name="Ellipse 6" cx="2" cy="2" r="2" transform="translate(277 641)" fill="#e98d90"/>
      </g>
      <g transform="translate(-37 -481)">
        <circle id="Ellipse_6-221" data-name="Ellipse 6" cx="2" cy="2" r="2" transform="translate(277 641)" fill="#e98d90"/>
      </g>
      <g transform="translate(-17 -481)">
        <circle id="Ellipse_6-222" data-name="Ellipse 6" cx="2" cy="2" r="2" transform="translate(277 641)" fill="#e98d90"/>
      </g>
      <g transform="translate(3 -481)">
        <circle id="Ellipse_6-223" data-name="Ellipse 6" cx="2" cy="2" r="2" transform="translate(277 641)" fill="#e98d90"/>
      </g>
      <g transform="translate(23 -481)">
        <circle id="Ellipse_6-224" data-name="Ellipse 6" cx="2" cy="2" r="2" transform="translate(277 641)" fill="#e98d90"/>
      </g>
      <g transform="translate(43 -481)">
        <circle id="Ellipse_6-225" data-name="Ellipse 6" cx="2" cy="2" r="2" transform="translate(277 641)" fill="#e98d90"/>
      </g>
      <g transform="translate(63 -481)">
        <circle id="Ellipse_6-226" data-name="Ellipse 6" cx="2" cy="2" r="2" transform="translate(277 641)" fill="#e98d90"/>
      </g>
      <g transform="translate(83 -481)">
        <circle id="Ellipse_6-227" data-name="Ellipse 6" cx="2" cy="2" r="2" transform="translate(277 641)" fill="#e98d90"/>
      </g>
      <g transform="translate(103 -481)">
        <circle id="Ellipse_6-228" data-name="Ellipse 6" cx="2" cy="2" r="2" transform="translate(277 641)" fill="#e98d90"/>
      </g>
      <g transform="translate(123 -481)">
        <circle id="Ellipse_6-229" data-name="Ellipse 6" cx="2" cy="2" r="2" transform="translate(277 641)" fill="#e98d90"/>
      </g>
      <g transform="translate(143 -481)">
        <circle id="Ellipse_6-230" data-name="Ellipse 6" cx="2" cy="2" r="2" transform="translate(277 641)" fill="#e98d90"/>
      </g>
      <g transform="translate(163 -481)">
        <circle id="Ellipse_6-231" data-name="Ellipse 6" cx="2" cy="2" r="2" transform="translate(277 641)" fill="#e98d90"/>
      </g>
      <g transform="translate(183 -481)">
        <circle id="Ellipse_6-232" data-name="Ellipse 6" cx="2" cy="2" r="2" transform="translate(277 641)" fill="#e98d90"/>
      </g>
      <g transform="translate(203 -481)">
        <circle id="Ellipse_6-233" data-name="Ellipse 6" cx="2" cy="2" r="2" transform="translate(277 641)" fill="#e98d90"/>
      </g>
      <g transform="translate(223 -481)">
        <circle id="Ellipse_6-234" data-name="Ellipse 6" cx="2" cy="2" r="2" transform="translate(277 641)" fill="#e98d90"/>
      </g>
      <g transform="translate(-277 -461)">
        <circle id="Ellipse_6-235" data-name="Ellipse 6" cx="2" cy="2" r="2" transform="translate(277 641)" fill="#e98d90"/>
      </g>
      <g transform="translate(-257 -461)">
        <circle id="Ellipse_6-236" data-name="Ellipse 6" cx="2" cy="2" r="2" transform="translate(277 641)" fill="#e98d90"/>
      </g>
      <g transform="translate(-237 -461)">
        <circle id="Ellipse_6-237" data-name="Ellipse 6" cx="2" cy="2" r="2" transform="translate(277 641)" fill="#e98d90"/>
      </g>
      <g transform="translate(-217 -461)">
        <circle id="Ellipse_6-238" data-name="Ellipse 6" cx="2" cy="2" r="2" transform="translate(277 641)" fill="#e98d90"/>
      </g>
      <g transform="translate(-197 -461)">
        <circle id="Ellipse_6-239" data-name="Ellipse 6" cx="2" cy="2" r="2" transform="translate(277 641)" fill="#e98d90"/>
      </g>
      <g transform="translate(-177 -461)">
        <circle id="Ellipse_6-240" data-name="Ellipse 6" cx="2" cy="2" r="2" transform="translate(277 641)" fill="#e98d90"/>
      </g>
      <g transform="translate(-157 -461)">
        <circle id="Ellipse_6-241" data-name="Ellipse 6" cx="2" cy="2" r="2" transform="translate(277 641)" fill="#e98d90"/>
      </g>
      <g transform="translate(-137 -461)">
        <circle id="Ellipse_6-242" data-name="Ellipse 6" cx="2" cy="2" r="2" transform="translate(277 641)" fill="#e98d90"/>
      </g>
      <g transform="translate(-117 -461)">
        <circle id="Ellipse_6-243" data-name="Ellipse 6" cx="2" cy="2" r="2" transform="translate(277 641)" fill="#e98d90"/>
      </g>
      <g transform="translate(-97 -461)">
        <circle id="Ellipse_6-244" data-name="Ellipse 6" cx="2" cy="2" r="2" transform="translate(277 641)" fill="#e98d90"/>
      </g>
      <g transform="translate(-77 -461)">
        <circle id="Ellipse_6-245" data-name="Ellipse 6" cx="2" cy="2" r="2" transform="translate(277 641)" fill="#e98d90"/>
      </g>
      <g transform="translate(-57 -461)">
        <circle id="Ellipse_6-246" data-name="Ellipse 6" cx="2" cy="2" r="2" transform="translate(277 641)" fill="#e98d90"/>
      </g>
      <g transform="translate(-37 -461)">
        <circle id="Ellipse_6-247" data-name="Ellipse 6" cx="2" cy="2" r="2" transform="translate(277 641)" fill="#e98d90"/>
      </g>
      <g transform="translate(-17 -461)">
        <circle id="Ellipse_6-248" data-name="Ellipse 6" cx="2" cy="2" r="2" transform="translate(277 641)" fill="#e98d90"/>
      </g>
      <g transform="translate(3 -461)">
        <circle id="Ellipse_6-249" data-name="Ellipse 6" cx="2" cy="2" r="2" transform="translate(277 641)" fill="#e98d90"/>
      </g>
      <g transform="translate(23 -461)">
        <circle id="Ellipse_6-250" data-name="Ellipse 6" cx="2" cy="2" r="2" transform="translate(277 641)" fill="#e98d90"/>
      </g>
      <g transform="translate(43 -461)">
        <circle id="Ellipse_6-251" data-name="Ellipse 6" cx="2" cy="2" r="2" transform="translate(277 641)" fill="#e98d90"/>
      </g>
      <g transform="translate(63 -461)">
        <circle id="Ellipse_6-252" data-name="Ellipse 6" cx="2" cy="2" r="2" transform="translate(277 641)" fill="#e98d90"/>
      </g>
      <g transform="translate(83 -461)">
        <circle id="Ellipse_6-253" data-name="Ellipse 6" cx="2" cy="2" r="2" transform="translate(277 641)" fill="#e98d90"/>
      </g>
      <g transform="translate(103 -461)">
        <circle id="Ellipse_6-254" data-name="Ellipse 6" cx="2" cy="2" r="2" transform="translate(277 641)" fill="#e98d90"/>
      </g>
      <g transform="translate(123 -461)">
        <circle id="Ellipse_6-255" data-name="Ellipse 6" cx="2" cy="2" r="2" transform="translate(277 641)" fill="#e98d90"/>
      </g>
      <g transform="translate(143 -461)">
        <circle id="Ellipse_6-256" data-name="Ellipse 6" cx="2" cy="2" r="2" transform="translate(277 641)" fill="#e98d90"/>
      </g>
      <g transform="translate(163 -461)">
        <circle id="Ellipse_6-257" data-name="Ellipse 6" cx="2" cy="2" r="2" transform="translate(277 641)" fill="#e98d90"/>
      </g>
      <g transform="translate(183 -461)">
        <circle id="Ellipse_6-258" data-name="Ellipse 6" cx="2" cy="2" r="2" transform="translate(277 641)" fill="#e98d90"/>
      </g>
      <g transform="translate(203 -461)">
        <circle id="Ellipse_6-259" data-name="Ellipse 6" cx="2" cy="2" r="2" transform="translate(277 641)" fill="#e98d90"/>
      </g>
      <g transform="translate(223 -461)">
        <circle id="Ellipse_6-260" data-name="Ellipse 6" cx="2" cy="2" r="2" transform="translate(277 641)" fill="#e98d90"/>
      </g>
    </g>
    <g id="Group_20" data-name="Group 20" transform="translate(1920 4324) rotate(90)">
      <line id="Line_1" data-name="Line 1" y1="155" fill="none" stroke="#707070" stroke-width="5"/>
      <line id="Line_1-2" data-name="Line 1" y1="136" transform="translate(25)" fill="none" stroke="#707070" stroke-width="5"/>
      <line id="Line_1-3" data-name="Line 1" y1="116" transform="translate(50)" fill="none" stroke="#707070" stroke-width="5"/>
      <line id="Line_1-4" data-name="Line 1" y1="86" transform="translate(75)" fill="none" stroke="#707070" stroke-width="5"/>
      <line id="Line_1-5" data-name="Line 1" y1="59" transform="translate(100)" fill="none" stroke="#707070" stroke-width="5"/>
    </g>
  </g>
</svg>
