<svg xmlns="http://www.w3.org/2000/svg" xmlns:xlink="http://www.w3.org/1999/xlink" width="208.5" height="1160" viewBox="0 0 208.5 1160">
  <defs>
    <clipPath id="clip-path">
      <rect width="208" height="560" fill="none"/>
    </clipPath>
    <clipPath id="clip-path-2">
      <rect width="508" height="82" fill="none"/>
    </clipPath>
  </defs>
  <g id="Group_39" data-name="Group 39" transform="translate(-1712 -925.5)">
    <line id="Line_2" data-name="Line 2" y2="155" transform="translate(1866.5 925.5)" fill="none" stroke="#fff" stroke-width="5"/>
    <g id="Repeat_Grid_8" data-name="Repeat Grid 8" transform="translate(1712 1151)" clip-path="url(#clip-path)">
      <g transform="translate(214 -226)">
        <g id="Rectangle_1" data-name="Rectangle 1" transform="translate(-214 226)" fill="#fff" stroke="#ea8d8d" stroke-width="30">
          <rect width="620" height="560" stroke="none"/>
          <rect x="15" y="15" width="590" height="530" fill="none"/>
        </g>
      </g>
    </g>
    <g id="Repeat_Grid_10" data-name="Repeat Grid 10" transform="translate(1920.5 1577.5) rotate(90)" clip-path="url(#clip-path-2)">
      <g transform="translate(-277 -641)">
        <g id="Ellipse_6" data-name="Ellipse 6" transform="translate(277 641)" fill="#707070" stroke="#707070" stroke-width="1">
          <circle cx="2" cy="2" r="2" stroke="none"/>
          <circle cx="2" cy="2" r="1.5" fill="none"/>
        </g>
      </g>
      <g transform="translate(-257 -641)">
        <g id="Ellipse_6-2" data-name="Ellipse 6" transform="translate(277 641)" fill="#707070" stroke="#707070" stroke-width="1">
          <circle cx="2" cy="2" r="2" stroke="none"/>
          <circle cx="2" cy="2" r="1.5" fill="none"/>
        </g>
      </g>
      <g transform="translate(-237 -641)">
        <g id="Ellipse_6-3" data-name="Ellipse 6" transform="translate(277 641)" fill="#707070" stroke="#707070" stroke-width="1">
          <circle cx="2" cy="2" r="2" stroke="none"/>
          <circle cx="2" cy="2" r="1.5" fill="none"/>
        </g>
      </g>
      <g transform="translate(-217 -641)">
        <g id="Ellipse_6-4" data-name="Ellipse 6" transform="translate(277 641)" fill="#707070" stroke="#707070" stroke-width="1">
          <circle cx="2" cy="2" r="2" stroke="none"/>
          <circle cx="2" cy="2" r="1.5" fill="none"/>
        </g>
      </g>
      <g transform="translate(-197 -641)">
        <g id="Ellipse_6-5" data-name="Ellipse 6" transform="translate(277 641)" fill="#707070" stroke="#707070" stroke-width="1">
          <circle cx="2" cy="2" r="2" stroke="none"/>
          <circle cx="2" cy="2" r="1.5" fill="none"/>
        </g>
      </g>
      <g transform="translate(-177 -641)">
        <g id="Ellipse_6-6" data-name="Ellipse 6" transform="translate(277 641)" fill="#707070" stroke="#707070" stroke-width="1">
          <circle cx="2" cy="2" r="2" stroke="none"/>
          <circle cx="2" cy="2" r="1.5" fill="none"/>
        </g>
      </g>
      <g transform="translate(-157 -641)">
        <g id="Ellipse_6-7" data-name="Ellipse 6" transform="translate(277 641)" fill="#707070" stroke="#707070" stroke-width="1">
          <circle cx="2" cy="2" r="2" stroke="none"/>
          <circle cx="2" cy="2" r="1.5" fill="none"/>
        </g>
      </g>
      <g transform="translate(-137 -641)">
        <g id="Ellipse_6-8" data-name="Ellipse 6" transform="translate(277 641)" fill="#707070" stroke="#707070" stroke-width="1">
          <circle cx="2" cy="2" r="2" stroke="none"/>
          <circle cx="2" cy="2" r="1.5" fill="none"/>
        </g>
      </g>
      <g transform="translate(-117 -641)">
        <g id="Ellipse_6-9" data-name="Ellipse 6" transform="translate(277 641)" fill="#707070" stroke="#707070" stroke-width="1">
          <circle cx="2" cy="2" r="2" stroke="none"/>
          <circle cx="2" cy="2" r="1.5" fill="none"/>
        </g>
      </g>
      <g transform="translate(-97 -641)">
        <g id="Ellipse_6-10" data-name="Ellipse 6" transform="translate(277 641)" fill="#707070" stroke="#707070" stroke-width="1">
          <circle cx="2" cy="2" r="2" stroke="none"/>
          <circle cx="2" cy="2" r="1.5" fill="none"/>
        </g>
      </g>
      <g transform="translate(-77 -641)">
        <g id="Ellipse_6-11" data-name="Ellipse 6" transform="translate(277 641)" fill="#707070" stroke="#707070" stroke-width="1">
          <circle cx="2" cy="2" r="2" stroke="none"/>
          <circle cx="2" cy="2" r="1.5" fill="none"/>
        </g>
      </g>
      <g transform="translate(-57 -641)">
        <g id="Ellipse_6-12" data-name="Ellipse 6" transform="translate(277 641)" fill="#707070" stroke="#707070" stroke-width="1">
          <circle cx="2" cy="2" r="2" stroke="none"/>
          <circle cx="2" cy="2" r="1.5" fill="none"/>
        </g>
      </g>
      <g transform="translate(-37 -641)">
        <g id="Ellipse_6-13" data-name="Ellipse 6" transform="translate(277 641)" fill="#707070" stroke="#707070" stroke-width="1">
          <circle cx="2" cy="2" r="2" stroke="none"/>
          <circle cx="2" cy="2" r="1.5" fill="none"/>
        </g>
      </g>
      <g transform="translate(-17 -641)">
        <g id="Ellipse_6-14" data-name="Ellipse 6" transform="translate(277 641)" fill="#707070" stroke="#707070" stroke-width="1">
          <circle cx="2" cy="2" r="2" stroke="none"/>
          <circle cx="2" cy="2" r="1.5" fill="none"/>
        </g>
      </g>
      <g transform="translate(3 -641)">
        <g id="Ellipse_6-15" data-name="Ellipse 6" transform="translate(277 641)" fill="#707070" stroke="#707070" stroke-width="1">
          <circle cx="2" cy="2" r="2" stroke="none"/>
          <circle cx="2" cy="2" r="1.5" fill="none"/>
        </g>
      </g>
      <g transform="translate(23 -641)">
        <g id="Ellipse_6-16" data-name="Ellipse 6" transform="translate(277 641)" fill="#707070" stroke="#707070" stroke-width="1">
          <circle cx="2" cy="2" r="2" stroke="none"/>
          <circle cx="2" cy="2" r="1.5" fill="none"/>
        </g>
      </g>
      <g transform="translate(43 -641)">
        <g id="Ellipse_6-17" data-name="Ellipse 6" transform="translate(277 641)" fill="#707070" stroke="#707070" stroke-width="1">
          <circle cx="2" cy="2" r="2" stroke="none"/>
          <circle cx="2" cy="2" r="1.5" fill="none"/>
        </g>
      </g>
      <g transform="translate(63 -641)">
        <g id="Ellipse_6-18" data-name="Ellipse 6" transform="translate(277 641)" fill="#707070" stroke="#707070" stroke-width="1">
          <circle cx="2" cy="2" r="2" stroke="none"/>
          <circle cx="2" cy="2" r="1.5" fill="none"/>
        </g>
      </g>
      <g transform="translate(83 -641)">
        <g id="Ellipse_6-19" data-name="Ellipse 6" transform="translate(277 641)" fill="#707070" stroke="#707070" stroke-width="1">
          <circle cx="2" cy="2" r="2" stroke="none"/>
          <circle cx="2" cy="2" r="1.5" fill="none"/>
        </g>
      </g>
      <g transform="translate(103 -641)">
        <g id="Ellipse_6-20" data-name="Ellipse 6" transform="translate(277 641)" fill="#707070" stroke="#707070" stroke-width="1">
          <circle cx="2" cy="2" r="2" stroke="none"/>
          <circle cx="2" cy="2" r="1.5" fill="none"/>
        </g>
      </g>
      <g transform="translate(123 -641)">
        <g id="Ellipse_6-21" data-name="Ellipse 6" transform="translate(277 641)" fill="#707070" stroke="#707070" stroke-width="1">
          <circle cx="2" cy="2" r="2" stroke="none"/>
          <circle cx="2" cy="2" r="1.5" fill="none"/>
        </g>
      </g>
      <g transform="translate(143 -641)">
        <g id="Ellipse_6-22" data-name="Ellipse 6" transform="translate(277 641)" fill="#707070" stroke="#707070" stroke-width="1">
          <circle cx="2" cy="2" r="2" stroke="none"/>
          <circle cx="2" cy="2" r="1.5" fill="none"/>
        </g>
      </g>
      <g transform="translate(163 -641)">
        <g id="Ellipse_6-23" data-name="Ellipse 6" transform="translate(277 641)" fill="#707070" stroke="#707070" stroke-width="1">
          <circle cx="2" cy="2" r="2" stroke="none"/>
          <circle cx="2" cy="2" r="1.5" fill="none"/>
        </g>
      </g>
      <g transform="translate(183 -641)">
        <g id="Ellipse_6-24" data-name="Ellipse 6" transform="translate(277 641)" fill="#707070" stroke="#707070" stroke-width="1">
          <circle cx="2" cy="2" r="2" stroke="none"/>
          <circle cx="2" cy="2" r="1.5" fill="none"/>
        </g>
      </g>
      <g transform="translate(203 -641)">
        <g id="Ellipse_6-25" data-name="Ellipse 6" transform="translate(277 641)" fill="#707070" stroke="#707070" stroke-width="1">
          <circle cx="2" cy="2" r="2" stroke="none"/>
          <circle cx="2" cy="2" r="1.5" fill="none"/>
        </g>
      </g>
      <g transform="translate(223 -641)">
        <g id="Ellipse_6-26" data-name="Ellipse 6" transform="translate(277 641)" fill="#707070" stroke="#707070" stroke-width="1">
          <circle cx="2" cy="2" r="2" stroke="none"/>
          <circle cx="2" cy="2" r="1.5" fill="none"/>
        </g>
      </g>
      <g transform="translate(-277 -621)">
        <g id="Ellipse_6-27" data-name="Ellipse 6" transform="translate(277 641)" fill="#707070" stroke="#707070" stroke-width="1">
          <circle cx="2" cy="2" r="2" stroke="none"/>
          <circle cx="2" cy="2" r="1.5" fill="none"/>
        </g>
      </g>
      <g transform="translate(-257 -621)">
        <g id="Ellipse_6-28" data-name="Ellipse 6" transform="translate(277 641)" fill="#707070" stroke="#707070" stroke-width="1">
          <circle cx="2" cy="2" r="2" stroke="none"/>
          <circle cx="2" cy="2" r="1.5" fill="none"/>
        </g>
      </g>
      <g transform="translate(-237 -621)">
        <g id="Ellipse_6-29" data-name="Ellipse 6" transform="translate(277 641)" fill="#707070" stroke="#707070" stroke-width="1">
          <circle cx="2" cy="2" r="2" stroke="none"/>
          <circle cx="2" cy="2" r="1.5" fill="none"/>
        </g>
      </g>
      <g transform="translate(-217 -621)">
        <g id="Ellipse_6-30" data-name="Ellipse 6" transform="translate(277 641)" fill="#707070" stroke="#707070" stroke-width="1">
          <circle cx="2" cy="2" r="2" stroke="none"/>
          <circle cx="2" cy="2" r="1.5" fill="none"/>
        </g>
      </g>
      <g transform="translate(-197 -621)">
        <g id="Ellipse_6-31" data-name="Ellipse 6" transform="translate(277 641)" fill="#707070" stroke="#707070" stroke-width="1">
          <circle cx="2" cy="2" r="2" stroke="none"/>
          <circle cx="2" cy="2" r="1.5" fill="none"/>
        </g>
      </g>
      <g transform="translate(-177 -621)">
        <g id="Ellipse_6-32" data-name="Ellipse 6" transform="translate(277 641)" fill="#707070" stroke="#707070" stroke-width="1">
          <circle cx="2" cy="2" r="2" stroke="none"/>
          <circle cx="2" cy="2" r="1.5" fill="none"/>
        </g>
      </g>
      <g transform="translate(-157 -621)">
        <g id="Ellipse_6-33" data-name="Ellipse 6" transform="translate(277 641)" fill="#707070" stroke="#707070" stroke-width="1">
          <circle cx="2" cy="2" r="2" stroke="none"/>
          <circle cx="2" cy="2" r="1.5" fill="none"/>
        </g>
      </g>
      <g transform="translate(-137 -621)">
        <g id="Ellipse_6-34" data-name="Ellipse 6" transform="translate(277 641)" fill="#707070" stroke="#707070" stroke-width="1">
          <circle cx="2" cy="2" r="2" stroke="none"/>
          <circle cx="2" cy="2" r="1.5" fill="none"/>
        </g>
      </g>
      <g transform="translate(-117 -621)">
        <g id="Ellipse_6-35" data-name="Ellipse 6" transform="translate(277 641)" fill="#707070" stroke="#707070" stroke-width="1">
          <circle cx="2" cy="2" r="2" stroke="none"/>
          <circle cx="2" cy="2" r="1.5" fill="none"/>
        </g>
      </g>
      <g transform="translate(-97 -621)">
        <g id="Ellipse_6-36" data-name="Ellipse 6" transform="translate(277 641)" fill="#707070" stroke="#707070" stroke-width="1">
          <circle cx="2" cy="2" r="2" stroke="none"/>
          <circle cx="2" cy="2" r="1.5" fill="none"/>
        </g>
      </g>
      <g transform="translate(-77 -621)">
        <g id="Ellipse_6-37" data-name="Ellipse 6" transform="translate(277 641)" fill="#707070" stroke="#707070" stroke-width="1">
          <circle cx="2" cy="2" r="2" stroke="none"/>
          <circle cx="2" cy="2" r="1.5" fill="none"/>
        </g>
      </g>
      <g transform="translate(-57 -621)">
        <g id="Ellipse_6-38" data-name="Ellipse 6" transform="translate(277 641)" fill="#707070" stroke="#707070" stroke-width="1">
          <circle cx="2" cy="2" r="2" stroke="none"/>
          <circle cx="2" cy="2" r="1.5" fill="none"/>
        </g>
      </g>
      <g transform="translate(-37 -621)">
        <g id="Ellipse_6-39" data-name="Ellipse 6" transform="translate(277 641)" fill="#707070" stroke="#707070" stroke-width="1">
          <circle cx="2" cy="2" r="2" stroke="none"/>
          <circle cx="2" cy="2" r="1.5" fill="none"/>
        </g>
      </g>
      <g transform="translate(-17 -621)">
        <g id="Ellipse_6-40" data-name="Ellipse 6" transform="translate(277 641)" fill="#707070" stroke="#707070" stroke-width="1">
          <circle cx="2" cy="2" r="2" stroke="none"/>
          <circle cx="2" cy="2" r="1.5" fill="none"/>
        </g>
      </g>
      <g transform="translate(3 -621)">
        <g id="Ellipse_6-41" data-name="Ellipse 6" transform="translate(277 641)" fill="#707070" stroke="#707070" stroke-width="1">
          <circle cx="2" cy="2" r="2" stroke="none"/>
          <circle cx="2" cy="2" r="1.5" fill="none"/>
        </g>
      </g>
      <g transform="translate(23 -621)">
        <g id="Ellipse_6-42" data-name="Ellipse 6" transform="translate(277 641)" fill="#707070" stroke="#707070" stroke-width="1">
          <circle cx="2" cy="2" r="2" stroke="none"/>
          <circle cx="2" cy="2" r="1.5" fill="none"/>
        </g>
      </g>
      <g transform="translate(43 -621)">
        <g id="Ellipse_6-43" data-name="Ellipse 6" transform="translate(277 641)" fill="#707070" stroke="#707070" stroke-width="1">
          <circle cx="2" cy="2" r="2" stroke="none"/>
          <circle cx="2" cy="2" r="1.5" fill="none"/>
        </g>
      </g>
      <g transform="translate(63 -621)">
        <g id="Ellipse_6-44" data-name="Ellipse 6" transform="translate(277 641)" fill="#707070" stroke="#707070" stroke-width="1">
          <circle cx="2" cy="2" r="2" stroke="none"/>
          <circle cx="2" cy="2" r="1.5" fill="none"/>
        </g>
      </g>
      <g transform="translate(83 -621)">
        <g id="Ellipse_6-45" data-name="Ellipse 6" transform="translate(277 641)" fill="#707070" stroke="#707070" stroke-width="1">
          <circle cx="2" cy="2" r="2" stroke="none"/>
          <circle cx="2" cy="2" r="1.5" fill="none"/>
        </g>
      </g>
      <g transform="translate(103 -621)">
        <g id="Ellipse_6-46" data-name="Ellipse 6" transform="translate(277 641)" fill="#707070" stroke="#707070" stroke-width="1">
          <circle cx="2" cy="2" r="2" stroke="none"/>
          <circle cx="2" cy="2" r="1.5" fill="none"/>
        </g>
      </g>
      <g transform="translate(123 -621)">
        <g id="Ellipse_6-47" data-name="Ellipse 6" transform="translate(277 641)" fill="#707070" stroke="#707070" stroke-width="1">
          <circle cx="2" cy="2" r="2" stroke="none"/>
          <circle cx="2" cy="2" r="1.5" fill="none"/>
        </g>
      </g>
      <g transform="translate(143 -621)">
        <g id="Ellipse_6-48" data-name="Ellipse 6" transform="translate(277 641)" fill="#707070" stroke="#707070" stroke-width="1">
          <circle cx="2" cy="2" r="2" stroke="none"/>
          <circle cx="2" cy="2" r="1.5" fill="none"/>
        </g>
      </g>
      <g transform="translate(163 -621)">
        <g id="Ellipse_6-49" data-name="Ellipse 6" transform="translate(277 641)" fill="#707070" stroke="#707070" stroke-width="1">
          <circle cx="2" cy="2" r="2" stroke="none"/>
          <circle cx="2" cy="2" r="1.5" fill="none"/>
        </g>
      </g>
      <g transform="translate(183 -621)">
        <g id="Ellipse_6-50" data-name="Ellipse 6" transform="translate(277 641)" fill="#707070" stroke="#707070" stroke-width="1">
          <circle cx="2" cy="2" r="2" stroke="none"/>
          <circle cx="2" cy="2" r="1.5" fill="none"/>
        </g>
      </g>
      <g transform="translate(203 -621)">
        <g id="Ellipse_6-51" data-name="Ellipse 6" transform="translate(277 641)" fill="#707070" stroke="#707070" stroke-width="1">
          <circle cx="2" cy="2" r="2" stroke="none"/>
          <circle cx="2" cy="2" r="1.5" fill="none"/>
        </g>
      </g>
      <g transform="translate(223 -621)">
        <g id="Ellipse_6-52" data-name="Ellipse 6" transform="translate(277 641)" fill="#707070" stroke="#707070" stroke-width="1">
          <circle cx="2" cy="2" r="2" stroke="none"/>
          <circle cx="2" cy="2" r="1.5" fill="none"/>
        </g>
      </g>
      <g transform="translate(-277 -601)">
        <g id="Ellipse_6-53" data-name="Ellipse 6" transform="translate(277 641)" fill="#707070" stroke="#707070" stroke-width="1">
          <circle cx="2" cy="2" r="2" stroke="none"/>
          <circle cx="2" cy="2" r="1.5" fill="none"/>
        </g>
      </g>
      <g transform="translate(-257 -601)">
        <g id="Ellipse_6-54" data-name="Ellipse 6" transform="translate(277 641)" fill="#707070" stroke="#707070" stroke-width="1">
          <circle cx="2" cy="2" r="2" stroke="none"/>
          <circle cx="2" cy="2" r="1.5" fill="none"/>
        </g>
      </g>
      <g transform="translate(-237 -601)">
        <g id="Ellipse_6-55" data-name="Ellipse 6" transform="translate(277 641)" fill="#707070" stroke="#707070" stroke-width="1">
          <circle cx="2" cy="2" r="2" stroke="none"/>
          <circle cx="2" cy="2" r="1.5" fill="none"/>
        </g>
      </g>
      <g transform="translate(-217 -601)">
        <g id="Ellipse_6-56" data-name="Ellipse 6" transform="translate(277 641)" fill="#707070" stroke="#707070" stroke-width="1">
          <circle cx="2" cy="2" r="2" stroke="none"/>
          <circle cx="2" cy="2" r="1.5" fill="none"/>
        </g>
      </g>
      <g transform="translate(-197 -601)">
        <g id="Ellipse_6-57" data-name="Ellipse 6" transform="translate(277 641)" fill="#707070" stroke="#707070" stroke-width="1">
          <circle cx="2" cy="2" r="2" stroke="none"/>
          <circle cx="2" cy="2" r="1.5" fill="none"/>
        </g>
      </g>
      <g transform="translate(-177 -601)">
        <g id="Ellipse_6-58" data-name="Ellipse 6" transform="translate(277 641)" fill="#707070" stroke="#707070" stroke-width="1">
          <circle cx="2" cy="2" r="2" stroke="none"/>
          <circle cx="2" cy="2" r="1.5" fill="none"/>
        </g>
      </g>
      <g transform="translate(-157 -601)">
        <g id="Ellipse_6-59" data-name="Ellipse 6" transform="translate(277 641)" fill="#707070" stroke="#707070" stroke-width="1">
          <circle cx="2" cy="2" r="2" stroke="none"/>
          <circle cx="2" cy="2" r="1.5" fill="none"/>
        </g>
      </g>
      <g transform="translate(-137 -601)">
        <g id="Ellipse_6-60" data-name="Ellipse 6" transform="translate(277 641)" fill="#707070" stroke="#707070" stroke-width="1">
          <circle cx="2" cy="2" r="2" stroke="none"/>
          <circle cx="2" cy="2" r="1.5" fill="none"/>
        </g>
      </g>
      <g transform="translate(-117 -601)">
        <g id="Ellipse_6-61" data-name="Ellipse 6" transform="translate(277 641)" fill="#707070" stroke="#707070" stroke-width="1">
          <circle cx="2" cy="2" r="2" stroke="none"/>
          <circle cx="2" cy="2" r="1.5" fill="none"/>
        </g>
      </g>
      <g transform="translate(-97 -601)">
        <g id="Ellipse_6-62" data-name="Ellipse 6" transform="translate(277 641)" fill="#707070" stroke="#707070" stroke-width="1">
          <circle cx="2" cy="2" r="2" stroke="none"/>
          <circle cx="2" cy="2" r="1.5" fill="none"/>
        </g>
      </g>
      <g transform="translate(-77 -601)">
        <g id="Ellipse_6-63" data-name="Ellipse 6" transform="translate(277 641)" fill="#707070" stroke="#707070" stroke-width="1">
          <circle cx="2" cy="2" r="2" stroke="none"/>
          <circle cx="2" cy="2" r="1.5" fill="none"/>
        </g>
      </g>
      <g transform="translate(-57 -601)">
        <g id="Ellipse_6-64" data-name="Ellipse 6" transform="translate(277 641)" fill="#707070" stroke="#707070" stroke-width="1">
          <circle cx="2" cy="2" r="2" stroke="none"/>
          <circle cx="2" cy="2" r="1.5" fill="none"/>
        </g>
      </g>
      <g transform="translate(-37 -601)">
        <g id="Ellipse_6-65" data-name="Ellipse 6" transform="translate(277 641)" fill="#707070" stroke="#707070" stroke-width="1">
          <circle cx="2" cy="2" r="2" stroke="none"/>
          <circle cx="2" cy="2" r="1.5" fill="none"/>
        </g>
      </g>
      <g transform="translate(-17 -601)">
        <g id="Ellipse_6-66" data-name="Ellipse 6" transform="translate(277 641)" fill="#707070" stroke="#707070" stroke-width="1">
          <circle cx="2" cy="2" r="2" stroke="none"/>
          <circle cx="2" cy="2" r="1.5" fill="none"/>
        </g>
      </g>
      <g transform="translate(3 -601)">
        <g id="Ellipse_6-67" data-name="Ellipse 6" transform="translate(277 641)" fill="#707070" stroke="#707070" stroke-width="1">
          <circle cx="2" cy="2" r="2" stroke="none"/>
          <circle cx="2" cy="2" r="1.5" fill="none"/>
        </g>
      </g>
      <g transform="translate(23 -601)">
        <g id="Ellipse_6-68" data-name="Ellipse 6" transform="translate(277 641)" fill="#707070" stroke="#707070" stroke-width="1">
          <circle cx="2" cy="2" r="2" stroke="none"/>
          <circle cx="2" cy="2" r="1.5" fill="none"/>
        </g>
      </g>
      <g transform="translate(43 -601)">
        <g id="Ellipse_6-69" data-name="Ellipse 6" transform="translate(277 641)" fill="#707070" stroke="#707070" stroke-width="1">
          <circle cx="2" cy="2" r="2" stroke="none"/>
          <circle cx="2" cy="2" r="1.5" fill="none"/>
        </g>
      </g>
      <g transform="translate(63 -601)">
        <g id="Ellipse_6-70" data-name="Ellipse 6" transform="translate(277 641)" fill="#707070" stroke="#707070" stroke-width="1">
          <circle cx="2" cy="2" r="2" stroke="none"/>
          <circle cx="2" cy="2" r="1.5" fill="none"/>
        </g>
      </g>
      <g transform="translate(83 -601)">
        <g id="Ellipse_6-71" data-name="Ellipse 6" transform="translate(277 641)" fill="#707070" stroke="#707070" stroke-width="1">
          <circle cx="2" cy="2" r="2" stroke="none"/>
          <circle cx="2" cy="2" r="1.5" fill="none"/>
        </g>
      </g>
      <g transform="translate(103 -601)">
        <g id="Ellipse_6-72" data-name="Ellipse 6" transform="translate(277 641)" fill="#707070" stroke="#707070" stroke-width="1">
          <circle cx="2" cy="2" r="2" stroke="none"/>
          <circle cx="2" cy="2" r="1.5" fill="none"/>
        </g>
      </g>
      <g transform="translate(123 -601)">
        <g id="Ellipse_6-73" data-name="Ellipse 6" transform="translate(277 641)" fill="#707070" stroke="#707070" stroke-width="1">
          <circle cx="2" cy="2" r="2" stroke="none"/>
          <circle cx="2" cy="2" r="1.5" fill="none"/>
        </g>
      </g>
      <g transform="translate(143 -601)">
        <g id="Ellipse_6-74" data-name="Ellipse 6" transform="translate(277 641)" fill="#707070" stroke="#707070" stroke-width="1">
          <circle cx="2" cy="2" r="2" stroke="none"/>
          <circle cx="2" cy="2" r="1.5" fill="none"/>
        </g>
      </g>
      <g transform="translate(163 -601)">
        <g id="Ellipse_6-75" data-name="Ellipse 6" transform="translate(277 641)" fill="#707070" stroke="#707070" stroke-width="1">
          <circle cx="2" cy="2" r="2" stroke="none"/>
          <circle cx="2" cy="2" r="1.5" fill="none"/>
        </g>
      </g>
      <g transform="translate(183 -601)">
        <g id="Ellipse_6-76" data-name="Ellipse 6" transform="translate(277 641)" fill="#707070" stroke="#707070" stroke-width="1">
          <circle cx="2" cy="2" r="2" stroke="none"/>
          <circle cx="2" cy="2" r="1.5" fill="none"/>
        </g>
      </g>
      <g transform="translate(203 -601)">
        <g id="Ellipse_6-77" data-name="Ellipse 6" transform="translate(277 641)" fill="#707070" stroke="#707070" stroke-width="1">
          <circle cx="2" cy="2" r="2" stroke="none"/>
          <circle cx="2" cy="2" r="1.5" fill="none"/>
        </g>
      </g>
      <g transform="translate(223 -601)">
        <g id="Ellipse_6-78" data-name="Ellipse 6" transform="translate(277 641)" fill="#707070" stroke="#707070" stroke-width="1">
          <circle cx="2" cy="2" r="2" stroke="none"/>
          <circle cx="2" cy="2" r="1.5" fill="none"/>
        </g>
      </g>
      <g transform="translate(-277 -581)">
        <g id="Ellipse_6-79" data-name="Ellipse 6" transform="translate(277 641)" fill="#707070" stroke="#707070" stroke-width="1">
          <circle cx="2" cy="2" r="2" stroke="none"/>
          <circle cx="2" cy="2" r="1.5" fill="none"/>
        </g>
      </g>
      <g transform="translate(-257 -581)">
        <g id="Ellipse_6-80" data-name="Ellipse 6" transform="translate(277 641)" fill="#707070" stroke="#707070" stroke-width="1">
          <circle cx="2" cy="2" r="2" stroke="none"/>
          <circle cx="2" cy="2" r="1.5" fill="none"/>
        </g>
      </g>
      <g transform="translate(-237 -581)">
        <g id="Ellipse_6-81" data-name="Ellipse 6" transform="translate(277 641)" fill="#707070" stroke="#707070" stroke-width="1">
          <circle cx="2" cy="2" r="2" stroke="none"/>
          <circle cx="2" cy="2" r="1.5" fill="none"/>
        </g>
      </g>
      <g transform="translate(-217 -581)">
        <g id="Ellipse_6-82" data-name="Ellipse 6" transform="translate(277 641)" fill="#707070" stroke="#707070" stroke-width="1">
          <circle cx="2" cy="2" r="2" stroke="none"/>
          <circle cx="2" cy="2" r="1.5" fill="none"/>
        </g>
      </g>
      <g transform="translate(-197 -581)">
        <g id="Ellipse_6-83" data-name="Ellipse 6" transform="translate(277 641)" fill="#707070" stroke="#707070" stroke-width="1">
          <circle cx="2" cy="2" r="2" stroke="none"/>
          <circle cx="2" cy="2" r="1.5" fill="none"/>
        </g>
      </g>
      <g transform="translate(-177 -581)">
        <g id="Ellipse_6-84" data-name="Ellipse 6" transform="translate(277 641)" fill="#707070" stroke="#707070" stroke-width="1">
          <circle cx="2" cy="2" r="2" stroke="none"/>
          <circle cx="2" cy="2" r="1.5" fill="none"/>
        </g>
      </g>
      <g transform="translate(-157 -581)">
        <g id="Ellipse_6-85" data-name="Ellipse 6" transform="translate(277 641)" fill="#707070" stroke="#707070" stroke-width="1">
          <circle cx="2" cy="2" r="2" stroke="none"/>
          <circle cx="2" cy="2" r="1.5" fill="none"/>
        </g>
      </g>
      <g transform="translate(-137 -581)">
        <g id="Ellipse_6-86" data-name="Ellipse 6" transform="translate(277 641)" fill="#707070" stroke="#707070" stroke-width="1">
          <circle cx="2" cy="2" r="2" stroke="none"/>
          <circle cx="2" cy="2" r="1.5" fill="none"/>
        </g>
      </g>
      <g transform="translate(-117 -581)">
        <g id="Ellipse_6-87" data-name="Ellipse 6" transform="translate(277 641)" fill="#707070" stroke="#707070" stroke-width="1">
          <circle cx="2" cy="2" r="2" stroke="none"/>
          <circle cx="2" cy="2" r="1.5" fill="none"/>
        </g>
      </g>
      <g transform="translate(-97 -581)">
        <g id="Ellipse_6-88" data-name="Ellipse 6" transform="translate(277 641)" fill="#707070" stroke="#707070" stroke-width="1">
          <circle cx="2" cy="2" r="2" stroke="none"/>
          <circle cx="2" cy="2" r="1.5" fill="none"/>
        </g>
      </g>
      <g transform="translate(-77 -581)">
        <g id="Ellipse_6-89" data-name="Ellipse 6" transform="translate(277 641)" fill="#707070" stroke="#707070" stroke-width="1">
          <circle cx="2" cy="2" r="2" stroke="none"/>
          <circle cx="2" cy="2" r="1.5" fill="none"/>
        </g>
      </g>
      <g transform="translate(-57 -581)">
        <g id="Ellipse_6-90" data-name="Ellipse 6" transform="translate(277 641)" fill="#707070" stroke="#707070" stroke-width="1">
          <circle cx="2" cy="2" r="2" stroke="none"/>
          <circle cx="2" cy="2" r="1.5" fill="none"/>
        </g>
      </g>
      <g transform="translate(-37 -581)">
        <g id="Ellipse_6-91" data-name="Ellipse 6" transform="translate(277 641)" fill="#707070" stroke="#707070" stroke-width="1">
          <circle cx="2" cy="2" r="2" stroke="none"/>
          <circle cx="2" cy="2" r="1.5" fill="none"/>
        </g>
      </g>
      <g transform="translate(-17 -581)">
        <g id="Ellipse_6-92" data-name="Ellipse 6" transform="translate(277 641)" fill="#707070" stroke="#707070" stroke-width="1">
          <circle cx="2" cy="2" r="2" stroke="none"/>
          <circle cx="2" cy="2" r="1.5" fill="none"/>
        </g>
      </g>
      <g transform="translate(3 -581)">
        <g id="Ellipse_6-93" data-name="Ellipse 6" transform="translate(277 641)" fill="#707070" stroke="#707070" stroke-width="1">
          <circle cx="2" cy="2" r="2" stroke="none"/>
          <circle cx="2" cy="2" r="1.5" fill="none"/>
        </g>
      </g>
      <g transform="translate(23 -581)">
        <g id="Ellipse_6-94" data-name="Ellipse 6" transform="translate(277 641)" fill="#707070" stroke="#707070" stroke-width="1">
          <circle cx="2" cy="2" r="2" stroke="none"/>
          <circle cx="2" cy="2" r="1.5" fill="none"/>
        </g>
      </g>
      <g transform="translate(43 -581)">
        <g id="Ellipse_6-95" data-name="Ellipse 6" transform="translate(277 641)" fill="#707070" stroke="#707070" stroke-width="1">
          <circle cx="2" cy="2" r="2" stroke="none"/>
          <circle cx="2" cy="2" r="1.5" fill="none"/>
        </g>
      </g>
      <g transform="translate(63 -581)">
        <g id="Ellipse_6-96" data-name="Ellipse 6" transform="translate(277 641)" fill="#707070" stroke="#707070" stroke-width="1">
          <circle cx="2" cy="2" r="2" stroke="none"/>
          <circle cx="2" cy="2" r="1.5" fill="none"/>
        </g>
      </g>
      <g transform="translate(83 -581)">
        <g id="Ellipse_6-97" data-name="Ellipse 6" transform="translate(277 641)" fill="#707070" stroke="#707070" stroke-width="1">
          <circle cx="2" cy="2" r="2" stroke="none"/>
          <circle cx="2" cy="2" r="1.5" fill="none"/>
        </g>
      </g>
      <g transform="translate(103 -581)">
        <g id="Ellipse_6-98" data-name="Ellipse 6" transform="translate(277 641)" fill="#707070" stroke="#707070" stroke-width="1">
          <circle cx="2" cy="2" r="2" stroke="none"/>
          <circle cx="2" cy="2" r="1.5" fill="none"/>
        </g>
      </g>
      <g transform="translate(123 -581)">
        <g id="Ellipse_6-99" data-name="Ellipse 6" transform="translate(277 641)" fill="#707070" stroke="#707070" stroke-width="1">
          <circle cx="2" cy="2" r="2" stroke="none"/>
          <circle cx="2" cy="2" r="1.5" fill="none"/>
        </g>
      </g>
      <g transform="translate(143 -581)">
        <g id="Ellipse_6-100" data-name="Ellipse 6" transform="translate(277 641)" fill="#707070" stroke="#707070" stroke-width="1">
          <circle cx="2" cy="2" r="2" stroke="none"/>
          <circle cx="2" cy="2" r="1.5" fill="none"/>
        </g>
      </g>
      <g transform="translate(163 -581)">
        <g id="Ellipse_6-101" data-name="Ellipse 6" transform="translate(277 641)" fill="#707070" stroke="#707070" stroke-width="1">
          <circle cx="2" cy="2" r="2" stroke="none"/>
          <circle cx="2" cy="2" r="1.5" fill="none"/>
        </g>
      </g>
      <g transform="translate(183 -581)">
        <g id="Ellipse_6-102" data-name="Ellipse 6" transform="translate(277 641)" fill="#707070" stroke="#707070" stroke-width="1">
          <circle cx="2" cy="2" r="2" stroke="none"/>
          <circle cx="2" cy="2" r="1.5" fill="none"/>
        </g>
      </g>
      <g transform="translate(203 -581)">
        <g id="Ellipse_6-103" data-name="Ellipse 6" transform="translate(277 641)" fill="#707070" stroke="#707070" stroke-width="1">
          <circle cx="2" cy="2" r="2" stroke="none"/>
          <circle cx="2" cy="2" r="1.5" fill="none"/>
        </g>
      </g>
      <g transform="translate(223 -581)">
        <g id="Ellipse_6-104" data-name="Ellipse 6" transform="translate(277 641)" fill="#707070" stroke="#707070" stroke-width="1">
          <circle cx="2" cy="2" r="2" stroke="none"/>
          <circle cx="2" cy="2" r="1.5" fill="none"/>
        </g>
      </g>
      <g transform="translate(-277 -561)">
        <g id="Ellipse_6-105" data-name="Ellipse 6" transform="translate(277 641)" fill="#707070" stroke="#707070" stroke-width="1">
          <circle cx="2" cy="2" r="2" stroke="none"/>
          <circle cx="2" cy="2" r="1.5" fill="none"/>
        </g>
      </g>
      <g transform="translate(-257 -561)">
        <g id="Ellipse_6-106" data-name="Ellipse 6" transform="translate(277 641)" fill="#707070" stroke="#707070" stroke-width="1">
          <circle cx="2" cy="2" r="2" stroke="none"/>
          <circle cx="2" cy="2" r="1.5" fill="none"/>
        </g>
      </g>
      <g transform="translate(-237 -561)">
        <g id="Ellipse_6-107" data-name="Ellipse 6" transform="translate(277 641)" fill="#707070" stroke="#707070" stroke-width="1">
          <circle cx="2" cy="2" r="2" stroke="none"/>
          <circle cx="2" cy="2" r="1.5" fill="none"/>
        </g>
      </g>
      <g transform="translate(-217 -561)">
        <g id="Ellipse_6-108" data-name="Ellipse 6" transform="translate(277 641)" fill="#707070" stroke="#707070" stroke-width="1">
          <circle cx="2" cy="2" r="2" stroke="none"/>
          <circle cx="2" cy="2" r="1.5" fill="none"/>
        </g>
      </g>
      <g transform="translate(-197 -561)">
        <g id="Ellipse_6-109" data-name="Ellipse 6" transform="translate(277 641)" fill="#707070" stroke="#707070" stroke-width="1">
          <circle cx="2" cy="2" r="2" stroke="none"/>
          <circle cx="2" cy="2" r="1.5" fill="none"/>
        </g>
      </g>
      <g transform="translate(-177 -561)">
        <g id="Ellipse_6-110" data-name="Ellipse 6" transform="translate(277 641)" fill="#707070" stroke="#707070" stroke-width="1">
          <circle cx="2" cy="2" r="2" stroke="none"/>
          <circle cx="2" cy="2" r="1.5" fill="none"/>
        </g>
      </g>
      <g transform="translate(-157 -561)">
        <g id="Ellipse_6-111" data-name="Ellipse 6" transform="translate(277 641)" fill="#707070" stroke="#707070" stroke-width="1">
          <circle cx="2" cy="2" r="2" stroke="none"/>
          <circle cx="2" cy="2" r="1.5" fill="none"/>
        </g>
      </g>
      <g transform="translate(-137 -561)">
        <g id="Ellipse_6-112" data-name="Ellipse 6" transform="translate(277 641)" fill="#707070" stroke="#707070" stroke-width="1">
          <circle cx="2" cy="2" r="2" stroke="none"/>
          <circle cx="2" cy="2" r="1.5" fill="none"/>
        </g>
      </g>
      <g transform="translate(-117 -561)">
        <g id="Ellipse_6-113" data-name="Ellipse 6" transform="translate(277 641)" fill="#707070" stroke="#707070" stroke-width="1">
          <circle cx="2" cy="2" r="2" stroke="none"/>
          <circle cx="2" cy="2" r="1.5" fill="none"/>
        </g>
      </g>
      <g transform="translate(-97 -561)">
        <g id="Ellipse_6-114" data-name="Ellipse 6" transform="translate(277 641)" fill="#707070" stroke="#707070" stroke-width="1">
          <circle cx="2" cy="2" r="2" stroke="none"/>
          <circle cx="2" cy="2" r="1.5" fill="none"/>
        </g>
      </g>
      <g transform="translate(-77 -561)">
        <g id="Ellipse_6-115" data-name="Ellipse 6" transform="translate(277 641)" fill="#707070" stroke="#707070" stroke-width="1">
          <circle cx="2" cy="2" r="2" stroke="none"/>
          <circle cx="2" cy="2" r="1.5" fill="none"/>
        </g>
      </g>
      <g transform="translate(-57 -561)">
        <g id="Ellipse_6-116" data-name="Ellipse 6" transform="translate(277 641)" fill="#707070" stroke="#707070" stroke-width="1">
          <circle cx="2" cy="2" r="2" stroke="none"/>
          <circle cx="2" cy="2" r="1.5" fill="none"/>
        </g>
      </g>
      <g transform="translate(-37 -561)">
        <g id="Ellipse_6-117" data-name="Ellipse 6" transform="translate(277 641)" fill="#707070" stroke="#707070" stroke-width="1">
          <circle cx="2" cy="2" r="2" stroke="none"/>
          <circle cx="2" cy="2" r="1.5" fill="none"/>
        </g>
      </g>
      <g transform="translate(-17 -561)">
        <g id="Ellipse_6-118" data-name="Ellipse 6" transform="translate(277 641)" fill="#707070" stroke="#707070" stroke-width="1">
          <circle cx="2" cy="2" r="2" stroke="none"/>
          <circle cx="2" cy="2" r="1.5" fill="none"/>
        </g>
      </g>
      <g transform="translate(3 -561)">
        <g id="Ellipse_6-119" data-name="Ellipse 6" transform="translate(277 641)" fill="#707070" stroke="#707070" stroke-width="1">
          <circle cx="2" cy="2" r="2" stroke="none"/>
          <circle cx="2" cy="2" r="1.5" fill="none"/>
        </g>
      </g>
      <g transform="translate(23 -561)">
        <g id="Ellipse_6-120" data-name="Ellipse 6" transform="translate(277 641)" fill="#707070" stroke="#707070" stroke-width="1">
          <circle cx="2" cy="2" r="2" stroke="none"/>
          <circle cx="2" cy="2" r="1.5" fill="none"/>
        </g>
      </g>
      <g transform="translate(43 -561)">
        <g id="Ellipse_6-121" data-name="Ellipse 6" transform="translate(277 641)" fill="#707070" stroke="#707070" stroke-width="1">
          <circle cx="2" cy="2" r="2" stroke="none"/>
          <circle cx="2" cy="2" r="1.5" fill="none"/>
        </g>
      </g>
      <g transform="translate(63 -561)">
        <g id="Ellipse_6-122" data-name="Ellipse 6" transform="translate(277 641)" fill="#707070" stroke="#707070" stroke-width="1">
          <circle cx="2" cy="2" r="2" stroke="none"/>
          <circle cx="2" cy="2" r="1.5" fill="none"/>
        </g>
      </g>
      <g transform="translate(83 -561)">
        <g id="Ellipse_6-123" data-name="Ellipse 6" transform="translate(277 641)" fill="#707070" stroke="#707070" stroke-width="1">
          <circle cx="2" cy="2" r="2" stroke="none"/>
          <circle cx="2" cy="2" r="1.5" fill="none"/>
        </g>
      </g>
      <g transform="translate(103 -561)">
        <g id="Ellipse_6-124" data-name="Ellipse 6" transform="translate(277 641)" fill="#707070" stroke="#707070" stroke-width="1">
          <circle cx="2" cy="2" r="2" stroke="none"/>
          <circle cx="2" cy="2" r="1.5" fill="none"/>
        </g>
      </g>
      <g transform="translate(123 -561)">
        <g id="Ellipse_6-125" data-name="Ellipse 6" transform="translate(277 641)" fill="#707070" stroke="#707070" stroke-width="1">
          <circle cx="2" cy="2" r="2" stroke="none"/>
          <circle cx="2" cy="2" r="1.5" fill="none"/>
        </g>
      </g>
      <g transform="translate(143 -561)">
        <g id="Ellipse_6-126" data-name="Ellipse 6" transform="translate(277 641)" fill="#707070" stroke="#707070" stroke-width="1">
          <circle cx="2" cy="2" r="2" stroke="none"/>
          <circle cx="2" cy="2" r="1.5" fill="none"/>
        </g>
      </g>
      <g transform="translate(163 -561)">
        <g id="Ellipse_6-127" data-name="Ellipse 6" transform="translate(277 641)" fill="#707070" stroke="#707070" stroke-width="1">
          <circle cx="2" cy="2" r="2" stroke="none"/>
          <circle cx="2" cy="2" r="1.5" fill="none"/>
        </g>
      </g>
      <g transform="translate(183 -561)">
        <g id="Ellipse_6-128" data-name="Ellipse 6" transform="translate(277 641)" fill="#707070" stroke="#707070" stroke-width="1">
          <circle cx="2" cy="2" r="2" stroke="none"/>
          <circle cx="2" cy="2" r="1.5" fill="none"/>
        </g>
      </g>
      <g transform="translate(203 -561)">
        <g id="Ellipse_6-129" data-name="Ellipse 6" transform="translate(277 641)" fill="#707070" stroke="#707070" stroke-width="1">
          <circle cx="2" cy="2" r="2" stroke="none"/>
          <circle cx="2" cy="2" r="1.5" fill="none"/>
        </g>
      </g>
      <g transform="translate(223 -561)">
        <g id="Ellipse_6-130" data-name="Ellipse 6" transform="translate(277 641)" fill="#707070" stroke="#707070" stroke-width="1">
          <circle cx="2" cy="2" r="2" stroke="none"/>
          <circle cx="2" cy="2" r="1.5" fill="none"/>
        </g>
      </g>
    </g>
    <rect id="Rectangle_6" data-name="Rectangle 6" width="43" height="294" transform="translate(1877 1004)" fill="#a890fe"/>
  </g>
</svg>
