<svg xmlns="http://www.w3.org/2000/svg" width="244" height="244" viewBox="0 0 244 244">
  <g id="Group_6" data-name="Group 6" transform="translate(-1547.5 -9.5)">
    <g id="Ellipse_6" data-name="Ellipse 6" transform="translate(1791.5 69.5) rotate(90)" fill="#ea8d8d" stroke="#ea8d8d" stroke-width="1">
      <circle cx="2" cy="2" r="2" stroke="none"/>
      <circle cx="2" cy="2" r="1.5" fill="none"/>
    </g>
    <g id="Ellipse_6-2" data-name="Ellipse 6" transform="translate(1791.5 89.5) rotate(90)" fill="#ea8d8d" stroke="#ea8d8d" stroke-width="1">
      <circle cx="2" cy="2" r="2" stroke="none"/>
      <circle cx="2" cy="2" r="1.5" fill="none"/>
    </g>
    <g id="Ellipse_6-3" data-name="Ellipse 6" transform="translate(1791.5 109.5) rotate(90)" fill="#ea8d8d" stroke="#ea8d8d" stroke-width="1">
      <circle cx="2" cy="2" r="2" stroke="none"/>
      <circle cx="2" cy="2" r="1.5" fill="none"/>
    </g>
    <g id="Ellipse_6-4" data-name="Ellipse 6" transform="translate(1791.5 129.5) rotate(90)" fill="#ea8d8d" stroke="#ea8d8d" stroke-width="1">
      <circle cx="2" cy="2" r="2" stroke="none"/>
      <circle cx="2" cy="2" r="1.5" fill="none"/>
    </g>
    <g id="Ellipse_6-5" data-name="Ellipse 6" transform="translate(1791.5 149.5) rotate(90)" fill="#ea8d8d" stroke="#ea8d8d" stroke-width="1">
      <circle cx="2" cy="2" r="2" stroke="none"/>
      <circle cx="2" cy="2" r="1.5" fill="none"/>
    </g>
    <g id="Ellipse_6-6" data-name="Ellipse 6" transform="translate(1791.5 169.5) rotate(90)" fill="#ea8d8d" stroke="#ea8d8d" stroke-width="1">
      <circle cx="2" cy="2" r="2" stroke="none"/>
      <circle cx="2" cy="2" r="1.5" fill="none"/>
    </g>
    <g id="Ellipse_6-7" data-name="Ellipse 6" transform="translate(1791.5 189.5) rotate(90)" fill="#ea8d8d" stroke="#ea8d8d" stroke-width="1">
      <circle cx="2" cy="2" r="2" stroke="none"/>
      <circle cx="2" cy="2" r="1.5" fill="none"/>
    </g>
    <g id="Ellipse_6-8" data-name="Ellipse 6" transform="translate(1791.5 209.5) rotate(90)" fill="#ea8d8d" stroke="#ea8d8d" stroke-width="1">
      <circle cx="2" cy="2" r="2" stroke="none"/>
      <circle cx="2" cy="2" r="1.5" fill="none"/>
    </g>
    <g id="Ellipse_6-9" data-name="Ellipse 6" transform="translate(1791.5 229.5) rotate(90)" fill="#ea8d8d" stroke="#ea8d8d" stroke-width="1">
      <circle cx="2" cy="2" r="2" stroke="none"/>
      <circle cx="2" cy="2" r="1.5" fill="none"/>
    </g>
    <g id="Ellipse_6-10" data-name="Ellipse 6" transform="translate(1791.5 249.5) rotate(90)" fill="#ea8d8d" stroke="#ea8d8d" stroke-width="1">
      <circle cx="2" cy="2" r="2" stroke="none"/>
      <circle cx="2" cy="2" r="1.5" fill="none"/>
    </g>
    <g id="Ellipse_6-11" data-name="Ellipse 6" transform="translate(1771.5 69.5) rotate(90)" fill="#ea8d8d" stroke="#ea8d8d" stroke-width="1">
      <circle cx="2" cy="2" r="2" stroke="none"/>
      <circle cx="2" cy="2" r="1.5" fill="none"/>
    </g>
    <g id="Ellipse_6-12" data-name="Ellipse 6" transform="translate(1771.5 89.5) rotate(90)" fill="#ea8d8d" stroke="#ea8d8d" stroke-width="1">
      <circle cx="2" cy="2" r="2" stroke="none"/>
      <circle cx="2" cy="2" r="1.5" fill="none"/>
    </g>
    <g id="Ellipse_6-13" data-name="Ellipse 6" transform="translate(1771.5 109.5) rotate(90)" fill="#ea8d8d" stroke="#ea8d8d" stroke-width="1">
      <circle cx="2" cy="2" r="2" stroke="none"/>
      <circle cx="2" cy="2" r="1.5" fill="none"/>
    </g>
    <g id="Ellipse_6-14" data-name="Ellipse 6" transform="translate(1771.5 129.5) rotate(90)" fill="#ea8d8d" stroke="#ea8d8d" stroke-width="1">
      <circle cx="2" cy="2" r="2" stroke="none"/>
      <circle cx="2" cy="2" r="1.5" fill="none"/>
    </g>
    <g id="Ellipse_6-15" data-name="Ellipse 6" transform="translate(1771.5 149.5) rotate(90)" fill="#ea8d8d" stroke="#ea8d8d" stroke-width="1">
      <circle cx="2" cy="2" r="2" stroke="none"/>
      <circle cx="2" cy="2" r="1.5" fill="none"/>
    </g>
    <g id="Ellipse_6-16" data-name="Ellipse 6" transform="translate(1771.5 169.5) rotate(90)" fill="#ea8d8d" stroke="#ea8d8d" stroke-width="1">
      <circle cx="2" cy="2" r="2" stroke="none"/>
      <circle cx="2" cy="2" r="1.5" fill="none"/>
    </g>
    <g id="Ellipse_6-17" data-name="Ellipse 6" transform="translate(1771.5 189.5) rotate(90)" fill="#ea8d8d" stroke="#ea8d8d" stroke-width="1">
      <circle cx="2" cy="2" r="2" stroke="none"/>
      <circle cx="2" cy="2" r="1.5" fill="none"/>
    </g>
    <g id="Ellipse_6-18" data-name="Ellipse 6" transform="translate(1771.5 209.5) rotate(90)" fill="#ea8d8d" stroke="#ea8d8d" stroke-width="1">
      <circle cx="2" cy="2" r="2" stroke="none"/>
      <circle cx="2" cy="2" r="1.5" fill="none"/>
    </g>
    <g id="Ellipse_6-19" data-name="Ellipse 6" transform="translate(1771.5 229.5) rotate(90)" fill="#ea8d8d" stroke="#ea8d8d" stroke-width="1">
      <circle cx="2" cy="2" r="2" stroke="none"/>
      <circle cx="2" cy="2" r="1.5" fill="none"/>
    </g>
    <g id="Ellipse_6-20" data-name="Ellipse 6" transform="translate(1751.5 69.5) rotate(90)" fill="#ea8d8d" stroke="#ea8d8d" stroke-width="1">
      <circle cx="2" cy="2" r="2" stroke="none"/>
      <circle cx="2" cy="2" r="1.5" fill="none"/>
    </g>
    <g id="Ellipse_6-21" data-name="Ellipse 6" transform="translate(1751.5 89.5) rotate(90)" fill="#ea8d8d" stroke="#ea8d8d" stroke-width="1">
      <circle cx="2" cy="2" r="2" stroke="none"/>
      <circle cx="2" cy="2" r="1.5" fill="none"/>
    </g>
    <g id="Ellipse_6-22" data-name="Ellipse 6" transform="translate(1751.5 109.5) rotate(90)" fill="#ea8d8d" stroke="#ea8d8d" stroke-width="1">
      <circle cx="2" cy="2" r="2" stroke="none"/>
      <circle cx="2" cy="2" r="1.5" fill="none"/>
    </g>
    <g id="Ellipse_6-23" data-name="Ellipse 6" transform="translate(1751.5 129.5) rotate(90)" fill="#ea8d8d" stroke="#ea8d8d" stroke-width="1">
      <circle cx="2" cy="2" r="2" stroke="none"/>
      <circle cx="2" cy="2" r="1.5" fill="none"/>
    </g>
    <g id="Ellipse_6-24" data-name="Ellipse 6" transform="translate(1751.5 149.5) rotate(90)" fill="#ea8d8d" stroke="#ea8d8d" stroke-width="1">
      <circle cx="2" cy="2" r="2" stroke="none"/>
      <circle cx="2" cy="2" r="1.5" fill="none"/>
    </g>
    <g id="Ellipse_6-25" data-name="Ellipse 6" transform="translate(1751.5 169.5) rotate(90)" fill="#ea8d8d" stroke="#ea8d8d" stroke-width="1">
      <circle cx="2" cy="2" r="2" stroke="none"/>
      <circle cx="2" cy="2" r="1.5" fill="none"/>
    </g>
    <g id="Ellipse_6-26" data-name="Ellipse 6" transform="translate(1751.5 189.5) rotate(90)" fill="#ea8d8d" stroke="#ea8d8d" stroke-width="1">
      <circle cx="2" cy="2" r="2" stroke="none"/>
      <circle cx="2" cy="2" r="1.5" fill="none"/>
    </g>
    <g id="Ellipse_6-27" data-name="Ellipse 6" transform="translate(1751.5 209.5) rotate(90)" fill="#ea8d8d" stroke="#ea8d8d" stroke-width="1">
      <circle cx="2" cy="2" r="2" stroke="none"/>
      <circle cx="2" cy="2" r="1.5" fill="none"/>
    </g>
    <g id="Ellipse_6-28" data-name="Ellipse 6" transform="translate(1731.5 69.5) rotate(90)" fill="#ea8d8d" stroke="#ea8d8d" stroke-width="1">
      <circle cx="2" cy="2" r="2" stroke="none"/>
      <circle cx="2" cy="2" r="1.5" fill="none"/>
    </g>
    <g id="Ellipse_6-29" data-name="Ellipse 6" transform="translate(1731.5 89.5) rotate(90)" fill="#ea8d8d" stroke="#ea8d8d" stroke-width="1">
      <circle cx="2" cy="2" r="2" stroke="none"/>
      <circle cx="2" cy="2" r="1.5" fill="none"/>
    </g>
    <g id="Ellipse_6-30" data-name="Ellipse 6" transform="translate(1731.5 109.5) rotate(90)" fill="#ea8d8d" stroke="#ea8d8d" stroke-width="1">
      <circle cx="2" cy="2" r="2" stroke="none"/>
      <circle cx="2" cy="2" r="1.5" fill="none"/>
    </g>
    <g id="Ellipse_6-31" data-name="Ellipse 6" transform="translate(1731.5 129.5) rotate(90)" fill="#ea8d8d" stroke="#ea8d8d" stroke-width="1">
      <circle cx="2" cy="2" r="2" stroke="none"/>
      <circle cx="2" cy="2" r="1.5" fill="none"/>
    </g>
    <g id="Ellipse_6-32" data-name="Ellipse 6" transform="translate(1731.5 149.5) rotate(90)" fill="#ea8d8d" stroke="#ea8d8d" stroke-width="1">
      <circle cx="2" cy="2" r="2" stroke="none"/>
      <circle cx="2" cy="2" r="1.5" fill="none"/>
    </g>
    <g id="Ellipse_6-33" data-name="Ellipse 6" transform="translate(1731.5 169.5) rotate(90)" fill="#ea8d8d" stroke="#ea8d8d" stroke-width="1">
      <circle cx="2" cy="2" r="2" stroke="none"/>
      <circle cx="2" cy="2" r="1.5" fill="none"/>
    </g>
    <g id="Ellipse_6-34" data-name="Ellipse 6" transform="translate(1731.5 189.5) rotate(90)" fill="#ea8d8d" stroke="#ea8d8d" stroke-width="1">
      <circle cx="2" cy="2" r="2" stroke="none"/>
      <circle cx="2" cy="2" r="1.5" fill="none"/>
    </g>
    <g id="Ellipse_6-35" data-name="Ellipse 6" transform="translate(1711.5 69.5) rotate(90)" fill="#ea8d8d" stroke="#ea8d8d" stroke-width="1">
      <circle cx="2" cy="2" r="2" stroke="none"/>
      <circle cx="2" cy="2" r="1.5" fill="none"/>
    </g>
    <g id="Ellipse_6-36" data-name="Ellipse 6" transform="translate(1711.5 89.5) rotate(90)" fill="#ea8d8d" stroke="#ea8d8d" stroke-width="1">
      <circle cx="2" cy="2" r="2" stroke="none"/>
      <circle cx="2" cy="2" r="1.5" fill="none"/>
    </g>
    <g id="Ellipse_6-37" data-name="Ellipse 6" transform="translate(1711.5 109.5) rotate(90)" fill="#ea8d8d" stroke="#ea8d8d" stroke-width="1">
      <circle cx="2" cy="2" r="2" stroke="none"/>
      <circle cx="2" cy="2" r="1.5" fill="none"/>
    </g>
    <g id="Ellipse_6-38" data-name="Ellipse 6" transform="translate(1711.5 129.5) rotate(90)" fill="#ea8d8d" stroke="#ea8d8d" stroke-width="1">
      <circle cx="2" cy="2" r="2" stroke="none"/>
      <circle cx="2" cy="2" r="1.5" fill="none"/>
    </g>
    <g id="Ellipse_6-39" data-name="Ellipse 6" transform="translate(1711.5 149.5) rotate(90)" fill="#ea8d8d" stroke="#ea8d8d" stroke-width="1">
      <circle cx="2" cy="2" r="2" stroke="none"/>
      <circle cx="2" cy="2" r="1.5" fill="none"/>
    </g>
    <g id="Ellipse_6-40" data-name="Ellipse 6" transform="translate(1711.5 169.5) rotate(90)" fill="#ea8d8d" stroke="#ea8d8d" stroke-width="1">
      <circle cx="2" cy="2" r="2" stroke="none"/>
      <circle cx="2" cy="2" r="1.5" fill="none"/>
    </g>
    <g id="Ellipse_6-41" data-name="Ellipse 6" transform="translate(1691.5 69.5) rotate(90)" fill="#ea8d8d" stroke="#ea8d8d" stroke-width="1">
      <circle cx="2" cy="2" r="2" stroke="none"/>
      <circle cx="2" cy="2" r="1.5" fill="none"/>
    </g>
    <g id="Ellipse_6-42" data-name="Ellipse 6" transform="translate(1691.5 89.5) rotate(90)" fill="#ea8d8d" stroke="#ea8d8d" stroke-width="1">
      <circle cx="2" cy="2" r="2" stroke="none"/>
      <circle cx="2" cy="2" r="1.5" fill="none"/>
    </g>
    <g id="Ellipse_6-43" data-name="Ellipse 6" transform="translate(1691.5 109.5) rotate(90)" fill="#ea8d8d" stroke="#ea8d8d" stroke-width="1">
      <circle cx="2" cy="2" r="2" stroke="none"/>
      <circle cx="2" cy="2" r="1.5" fill="none"/>
    </g>
    <g id="Ellipse_6-44" data-name="Ellipse 6" transform="translate(1691.5 129.5) rotate(90)" fill="#ea8d8d" stroke="#ea8d8d" stroke-width="1">
      <circle cx="2" cy="2" r="2" stroke="none"/>
      <circle cx="2" cy="2" r="1.5" fill="none"/>
    </g>
    <g id="Ellipse_6-45" data-name="Ellipse 6" transform="translate(1691.5 149.5) rotate(90)" fill="#ea8d8d" stroke="#ea8d8d" stroke-width="1">
      <circle cx="2" cy="2" r="2" stroke="none"/>
      <circle cx="2" cy="2" r="1.5" fill="none"/>
    </g>
    <g id="Ellipse_6-46" data-name="Ellipse 6" transform="translate(1671.5 69.5) rotate(90)" fill="#ea8d8d" stroke="#ea8d8d" stroke-width="1">
      <circle cx="2" cy="2" r="2" stroke="none"/>
      <circle cx="2" cy="2" r="1.5" fill="none"/>
    </g>
    <g id="Ellipse_6-47" data-name="Ellipse 6" transform="translate(1671.5 89.5) rotate(90)" fill="#ea8d8d" stroke="#ea8d8d" stroke-width="1">
      <circle cx="2" cy="2" r="2" stroke="none"/>
      <circle cx="2" cy="2" r="1.5" fill="none"/>
    </g>
    <g id="Ellipse_6-48" data-name="Ellipse 6" transform="translate(1671.5 109.5) rotate(90)" fill="#ea8d8d" stroke="#ea8d8d" stroke-width="1">
      <circle cx="2" cy="2" r="2" stroke="none"/>
      <circle cx="2" cy="2" r="1.5" fill="none"/>
    </g>
    <g id="Ellipse_6-49" data-name="Ellipse 6" transform="translate(1671.5 129.5) rotate(90)" fill="#ea8d8d" stroke="#ea8d8d" stroke-width="1">
      <circle cx="2" cy="2" r="2" stroke="none"/>
      <circle cx="2" cy="2" r="1.5" fill="none"/>
    </g>
    <g id="Ellipse_6-50" data-name="Ellipse 6" transform="translate(1651.5 69.5) rotate(90)" fill="#ea8d8d" stroke="#ea8d8d" stroke-width="1">
      <circle cx="2" cy="2" r="2" stroke="none"/>
      <circle cx="2" cy="2" r="1.5" fill="none"/>
    </g>
    <g id="Ellipse_6-51" data-name="Ellipse 6" transform="translate(1651.5 89.5) rotate(90)" fill="#ea8d8d" stroke="#ea8d8d" stroke-width="1">
      <circle cx="2" cy="2" r="2" stroke="none"/>
      <circle cx="2" cy="2" r="1.5" fill="none"/>
    </g>
    <g id="Ellipse_6-52" data-name="Ellipse 6" transform="translate(1651.5 109.5) rotate(90)" fill="#ea8d8d" stroke="#ea8d8d" stroke-width="1">
      <circle cx="2" cy="2" r="2" stroke="none"/>
      <circle cx="2" cy="2" r="1.5" fill="none"/>
    </g>
    <g id="Ellipse_6-53" data-name="Ellipse 6" transform="translate(1631.5 69.5) rotate(90)" fill="#ea8d8d" stroke="#ea8d8d" stroke-width="1">
      <circle cx="2" cy="2" r="2" stroke="none"/>
      <circle cx="2" cy="2" r="1.5" fill="none"/>
    </g>
    <g id="Ellipse_6-54" data-name="Ellipse 6" transform="translate(1631.5 89.5) rotate(90)" fill="#ea8d8d" stroke="#ea8d8d" stroke-width="1">
      <circle cx="2" cy="2" r="2" stroke="none"/>
      <circle cx="2" cy="2" r="1.5" fill="none"/>
    </g>
    <g id="Ellipse_6-55" data-name="Ellipse 6" transform="translate(1611.5 69.5) rotate(90)" fill="#ea8d8d" stroke="#ea8d8d" stroke-width="1">
      <circle cx="2" cy="2" r="2" stroke="none"/>
      <circle cx="2" cy="2" r="1.5" fill="none"/>
    </g>
    <g id="Ellipse_6-56" data-name="Ellipse 6" transform="translate(1791.5 9.5) rotate(90)" fill="#ea8d8d" stroke="#ea8d8d" stroke-width="1">
      <circle cx="2" cy="2" r="2" stroke="none"/>
      <circle cx="2" cy="2" r="1.5" fill="none"/>
    </g>
    <g id="Ellipse_6-57" data-name="Ellipse 6" transform="translate(1791.5 29.5) rotate(90)" fill="#ea8d8d" stroke="#ea8d8d" stroke-width="1">
      <circle cx="2" cy="2" r="2" stroke="none"/>
      <circle cx="2" cy="2" r="1.5" fill="none"/>
    </g>
    <g id="Ellipse_6-58" data-name="Ellipse 6" transform="translate(1791.5 49.5) rotate(90)" fill="#ea8d8d" stroke="#ea8d8d" stroke-width="1">
      <circle cx="2" cy="2" r="2" stroke="none"/>
      <circle cx="2" cy="2" r="1.5" fill="none"/>
    </g>
    <g id="Ellipse_6-59" data-name="Ellipse 6" transform="translate(1771.5 9.5) rotate(90)" fill="#ea8d8d" stroke="#ea8d8d" stroke-width="1">
      <circle cx="2" cy="2" r="2" stroke="none"/>
      <circle cx="2" cy="2" r="1.5" fill="none"/>
    </g>
    <g id="Ellipse_6-60" data-name="Ellipse 6" transform="translate(1771.5 29.5) rotate(90)" fill="#ea8d8d" stroke="#ea8d8d" stroke-width="1">
      <circle cx="2" cy="2" r="2" stroke="none"/>
      <circle cx="2" cy="2" r="1.5" fill="none"/>
    </g>
    <g id="Ellipse_6-61" data-name="Ellipse 6" transform="translate(1771.5 49.5) rotate(90)" fill="#ea8d8d" stroke="#ea8d8d" stroke-width="1">
      <circle cx="2" cy="2" r="2" stroke="none"/>
      <circle cx="2" cy="2" r="1.5" fill="none"/>
    </g>
    <g id="Ellipse_6-62" data-name="Ellipse 6" transform="translate(1751.5 9.5) rotate(90)" fill="#ea8d8d" stroke="#ea8d8d" stroke-width="1">
      <circle cx="2" cy="2" r="2" stroke="none"/>
      <circle cx="2" cy="2" r="1.5" fill="none"/>
    </g>
    <g id="Ellipse_6-63" data-name="Ellipse 6" transform="translate(1751.5 29.5) rotate(90)" fill="#ea8d8d" stroke="#ea8d8d" stroke-width="1">
      <circle cx="2" cy="2" r="2" stroke="none"/>
      <circle cx="2" cy="2" r="1.5" fill="none"/>
    </g>
    <g id="Ellipse_6-64" data-name="Ellipse 6" transform="translate(1751.5 49.5) rotate(90)" fill="#ea8d8d" stroke="#ea8d8d" stroke-width="1">
      <circle cx="2" cy="2" r="2" stroke="none"/>
      <circle cx="2" cy="2" r="1.5" fill="none"/>
    </g>
    <g id="Ellipse_6-65" data-name="Ellipse 6" transform="translate(1731.5 9.5) rotate(90)" fill="#ea8d8d" stroke="#ea8d8d" stroke-width="1">
      <circle cx="2" cy="2" r="2" stroke="none"/>
      <circle cx="2" cy="2" r="1.5" fill="none"/>
    </g>
    <g id="Ellipse_6-66" data-name="Ellipse 6" transform="translate(1731.5 29.5) rotate(90)" fill="#ea8d8d" stroke="#ea8d8d" stroke-width="1">
      <circle cx="2" cy="2" r="2" stroke="none"/>
      <circle cx="2" cy="2" r="1.5" fill="none"/>
    </g>
    <g id="Ellipse_6-67" data-name="Ellipse 6" transform="translate(1731.5 49.5) rotate(90)" fill="#ea8d8d" stroke="#ea8d8d" stroke-width="1">
      <circle cx="2" cy="2" r="2" stroke="none"/>
      <circle cx="2" cy="2" r="1.5" fill="none"/>
    </g>
    <g id="Ellipse_6-68" data-name="Ellipse 6" transform="translate(1711.5 9.5) rotate(90)" fill="#ea8d8d" stroke="#ea8d8d" stroke-width="1">
      <circle cx="2" cy="2" r="2" stroke="none"/>
      <circle cx="2" cy="2" r="1.5" fill="none"/>
    </g>
    <g id="Ellipse_6-69" data-name="Ellipse 6" transform="translate(1711.5 29.5) rotate(90)" fill="#ea8d8d" stroke="#ea8d8d" stroke-width="1">
      <circle cx="2" cy="2" r="2" stroke="none"/>
      <circle cx="2" cy="2" r="1.5" fill="none"/>
    </g>
    <g id="Ellipse_6-70" data-name="Ellipse 6" transform="translate(1711.5 49.5) rotate(90)" fill="#ea8d8d" stroke="#ea8d8d" stroke-width="1">
      <circle cx="2" cy="2" r="2" stroke="none"/>
      <circle cx="2" cy="2" r="1.5" fill="none"/>
    </g>
    <g id="Ellipse_6-71" data-name="Ellipse 6" transform="translate(1691.5 9.5) rotate(90)" fill="#ea8d8d" stroke="#ea8d8d" stroke-width="1">
      <circle cx="2" cy="2" r="2" stroke="none"/>
      <circle cx="2" cy="2" r="1.5" fill="none"/>
    </g>
    <g id="Ellipse_6-72" data-name="Ellipse 6" transform="translate(1691.5 29.5) rotate(90)" fill="#ea8d8d" stroke="#ea8d8d" stroke-width="1">
      <circle cx="2" cy="2" r="2" stroke="none"/>
      <circle cx="2" cy="2" r="1.5" fill="none"/>
    </g>
    <g id="Ellipse_6-73" data-name="Ellipse 6" transform="translate(1691.5 49.5) rotate(90)" fill="#ea8d8d" stroke="#ea8d8d" stroke-width="1">
      <circle cx="2" cy="2" r="2" stroke="none"/>
      <circle cx="2" cy="2" r="1.5" fill="none"/>
    </g>
    <g id="Ellipse_6-74" data-name="Ellipse 6" transform="translate(1671.5 9.5) rotate(90)" fill="#ea8d8d" stroke="#ea8d8d" stroke-width="1">
      <circle cx="2" cy="2" r="2" stroke="none"/>
      <circle cx="2" cy="2" r="1.5" fill="none"/>
    </g>
    <g id="Ellipse_6-75" data-name="Ellipse 6" transform="translate(1671.5 29.5) rotate(90)" fill="#ea8d8d" stroke="#ea8d8d" stroke-width="1">
      <circle cx="2" cy="2" r="2" stroke="none"/>
      <circle cx="2" cy="2" r="1.5" fill="none"/>
    </g>
    <g id="Ellipse_6-76" data-name="Ellipse 6" transform="translate(1671.5 49.5) rotate(90)" fill="#ea8d8d" stroke="#ea8d8d" stroke-width="1">
      <circle cx="2" cy="2" r="2" stroke="none"/>
      <circle cx="2" cy="2" r="1.5" fill="none"/>
    </g>
    <g id="Ellipse_6-77" data-name="Ellipse 6" transform="translate(1651.5 9.5) rotate(90)" fill="#ea8d8d" stroke="#ea8d8d" stroke-width="1">
      <circle cx="2" cy="2" r="2" stroke="none"/>
      <circle cx="2" cy="2" r="1.5" fill="none"/>
    </g>
    <g id="Ellipse_6-78" data-name="Ellipse 6" transform="translate(1651.5 29.5) rotate(90)" fill="#ea8d8d" stroke="#ea8d8d" stroke-width="1">
      <circle cx="2" cy="2" r="2" stroke="none"/>
      <circle cx="2" cy="2" r="1.5" fill="none"/>
    </g>
    <g id="Ellipse_6-79" data-name="Ellipse 6" transform="translate(1651.5 49.5) rotate(90)" fill="#ea8d8d" stroke="#ea8d8d" stroke-width="1">
      <circle cx="2" cy="2" r="2" stroke="none"/>
      <circle cx="2" cy="2" r="1.5" fill="none"/>
    </g>
    <g id="Ellipse_6-80" data-name="Ellipse 6" transform="translate(1631.5 9.5) rotate(90)" fill="#ea8d8d" stroke="#ea8d8d" stroke-width="1">
      <circle cx="2" cy="2" r="2" stroke="none"/>
      <circle cx="2" cy="2" r="1.5" fill="none"/>
    </g>
    <g id="Ellipse_6-81" data-name="Ellipse 6" transform="translate(1631.5 29.5) rotate(90)" fill="#ea8d8d" stroke="#ea8d8d" stroke-width="1">
      <circle cx="2" cy="2" r="2" stroke="none"/>
      <circle cx="2" cy="2" r="1.5" fill="none"/>
    </g>
    <g id="Ellipse_6-82" data-name="Ellipse 6" transform="translate(1631.5 49.5) rotate(90)" fill="#ea8d8d" stroke="#ea8d8d" stroke-width="1">
      <circle cx="2" cy="2" r="2" stroke="none"/>
      <circle cx="2" cy="2" r="1.5" fill="none"/>
    </g>
    <g id="Ellipse_6-83" data-name="Ellipse 6" transform="translate(1611.5 9.5) rotate(90)" fill="#ea8d8d" stroke="#ea8d8d" stroke-width="1">
      <circle cx="2" cy="2" r="2" stroke="none"/>
      <circle cx="2" cy="2" r="1.5" fill="none"/>
    </g>
    <g id="Ellipse_6-84" data-name="Ellipse 6" transform="translate(1611.5 29.5) rotate(90)" fill="#ea8d8d" stroke="#ea8d8d" stroke-width="1">
      <circle cx="2" cy="2" r="2" stroke="none"/>
      <circle cx="2" cy="2" r="1.5" fill="none"/>
    </g>
    <g id="Ellipse_6-85" data-name="Ellipse 6" transform="translate(1611.5 49.5) rotate(90)" fill="#ea8d8d" stroke="#ea8d8d" stroke-width="1">
      <circle cx="2" cy="2" r="2" stroke="none"/>
      <circle cx="2" cy="2" r="1.5" fill="none"/>
    </g>
    <g id="Ellipse_6-86" data-name="Ellipse 6" transform="translate(1591.5 9.5) rotate(90)" fill="#ea8d8d" stroke="#ea8d8d" stroke-width="1">
      <circle cx="2" cy="2" r="2" stroke="none"/>
      <circle cx="2" cy="2" r="1.5" fill="none"/>
    </g>
    <g id="Ellipse_6-87" data-name="Ellipse 6" transform="translate(1591.5 29.5) rotate(90)" fill="#ea8d8d" stroke="#ea8d8d" stroke-width="1">
      <circle cx="2" cy="2" r="2" stroke="none"/>
      <circle cx="2" cy="2" r="1.5" fill="none"/>
    </g>
    <g id="Ellipse_6-88" data-name="Ellipse 6" transform="translate(1591.5 49.5) rotate(90)" fill="#ea8d8d" stroke="#ea8d8d" stroke-width="1">
      <circle cx="2" cy="2" r="2" stroke="none"/>
      <circle cx="2" cy="2" r="1.5" fill="none"/>
    </g>
    <g id="Ellipse_6-89" data-name="Ellipse 6" transform="translate(1571.5 9.5) rotate(90)" fill="#ea8d8d" stroke="#ea8d8d" stroke-width="1">
      <circle cx="2" cy="2" r="2" stroke="none"/>
      <circle cx="2" cy="2" r="1.5" fill="none"/>
    </g>
    <g id="Ellipse_6-90" data-name="Ellipse 6" transform="translate(1571.5 29.5) rotate(90)" fill="#ea8d8d" stroke="#ea8d8d" stroke-width="1">
      <circle cx="2" cy="2" r="2" stroke="none"/>
      <circle cx="2" cy="2" r="1.5" fill="none"/>
    </g>
    <g id="Ellipse_6-91" data-name="Ellipse 6" transform="translate(1551.5 9.5) rotate(90)" fill="#ea8d8d" stroke="#ea8d8d" stroke-width="1">
      <circle cx="2" cy="2" r="2" stroke="none"/>
      <circle cx="2" cy="2" r="1.5" fill="none"/>
    </g>
  </g>
</svg>
