<svg xmlns="http://www.w3.org/2000/svg" width="102.542" height="100" viewBox="0 0 102.542 100">
  <g id="github-logo" transform="translate(0 -0.438)">
    <path id="Path_38" data-name="Path 38" d="M68.839,99.881a9.39,9.39,0,0,1-1.516.488,2.494,2.494,0,0,1-3.24-2.677c-.026-3.737-.026-7.467.035-11.2.064-4.3-.035-8.539-3.307-12.084,1.945-.348,3.676-.592,5.368-.981,11.213-2.575,17.037-9.648,17.78-21.386.38-5.975-.685-11.457-4.657-16.163a1.965,1.965,0,0,1-.165-1.565,19.7,19.7,0,0,0-.482-11.494,1.468,1.468,0,0,0-1.748-1.182,17.857,17.857,0,0,0-8.968,3.115,9.371,9.371,0,0,1-8,1.4,44.788,44.788,0,0,0-20.149.479,3.693,3.693,0,0,1-2.471-.467c-3.141-1.841-6.283-3.629-9.906-4.343-2.8-.546-3.046-.406-3.789,2.3a18.942,18.942,0,0,0-.073,10.266,2.078,2.078,0,0,1-.34,1.669c-7.424,8.283-4.735,23.935.267,29.931,3.89,4.657,9.058,6.753,14.8,7.842,1,.186,2,.328,3,.5-.859,2.236-1.632,4.346-2.506,6.422a2.117,2.117,0,0,1-1.158.906c-5.627,2.183-10.464.578-13.683-4.529C22.208,74.4,20,72.369,16.706,71.78a1.015,1.015,0,0,0-.308-.061c-.886.232-1.762.476-2.645.714.5.691.848,1.62,1.513,2.035a14.79,14.79,0,0,1,5.8,7.253c1.884,4.657,5.542,6.733,10.3,7.139,2.32.189,4.663.029,7.2.029,0,2.892.1,6.193-.044,9.479-.075,1.771-1.855,2.479-3.986,1.754a46.351,46.351,0,0,1-15.42-8.6C2.776,77.441-3.524,59.644,1.908,38.812c5.415-20.765,19.528-33.5,40.629-37.5,29.2-5.522,56.859,15.742,59.757,45.382A51.157,51.157,0,0,1,68.839,99.881ZM41.312,74.219l-.046.11.16.026C41.466,74.358,41.5,74.431,41.312,74.219ZM28.1,83.454a6.571,6.571,0,0,0,1.385.793c.18.058.514-.351,1.1-.787a9.984,9.984,0,0,0-1.809-.653C28.584,82.784,28.328,83.228,28.1,83.454Zm4.16.714a1.288,1.288,0,0,0,1.031.679c.345-.006.682-.465,1.028-.726-.314-.287-.627-.566-1.591-1.434C32.521,83.292,32.175,83.779,32.262,84.168Zm5.1-1.228a4.088,4.088,0,0,0-1.185.772c.229.29.459.56.827,1.016.508-.465.854-.787,1.2-1.1C37.921,83.376,37.581,82.888,37.366,82.94ZM24.714,81.219a11.453,11.453,0,0,0,1.106,1.475c.334-.546.7-.964.633-1.048a5.608,5.608,0,0,0-1.17-1.066C25.254,80.557,24.664,81.12,24.714,81.219Z" transform="translate(0 0)"/>
  </g>
</svg>
