<svg xmlns="http://www.w3.org/2000/svg" width="104.08" height="101.5" viewBox="0 0 104.08 101.5">
  <g id="github-logo" transform="translate(0 -0.438)">
    <path id="Path_2" data-name="Path 2" d="M69.871,101.373a9.532,9.532,0,0,1-1.538.5,2.532,2.532,0,0,1-3.289-2.717c-.027-3.793-.027-7.579.035-11.372.065-4.361-.035-8.667-3.357-12.265,1.974-.354,3.731-.6,5.449-1C78.553,71.9,84.464,64.725,85.219,52.811c.386-6.065-.7-11.628-4.727-16.405a1.994,1.994,0,0,1-.168-1.588,19.994,19.994,0,0,0-.489-11.667,1.49,1.49,0,0,0-1.774-1.2,18.125,18.125,0,0,0-9.1,3.162,9.512,9.512,0,0,1-8.116,1.42,45.46,45.46,0,0,0-20.451.486,3.749,3.749,0,0,1-2.508-.474c-3.189-1.868-6.377-3.684-10.055-4.409-2.844-.554-3.091-.413-3.846,2.337a19.226,19.226,0,0,0-.074,10.42,2.109,2.109,0,0,1-.345,1.694c-7.535,8.407-4.806,24.294.271,30.38,3.949,4.727,9.194,6.854,15.017,7.96,1.017.189,2.027.333,3.044.51-.872,2.269-1.656,4.411-2.543,6.519a2.148,2.148,0,0,1-1.176.919c-5.711,2.216-10.621.586-13.889-4.6-1.748-2.764-3.99-4.83-7.332-5.428a1.03,1.03,0,0,0-.312-.062c-.9.236-1.789.483-2.685.725.5.7.86,1.644,1.535,2.066a15.012,15.012,0,0,1,5.891,7.361c1.913,4.727,5.626,6.834,10.45,7.246,2.355.192,4.733.029,7.311.029,0,2.935.106,6.286-.044,9.622-.077,1.8-1.883,2.517-4.046,1.78a47.046,47.046,0,0,1-15.651-8.732C2.817,78.6-3.577,60.532,1.936,39.388c5.5-21.076,19.821-34,41.239-38.062,29.637-5.6,57.712,15.978,60.653,46.063A51.924,51.924,0,0,1,69.871,101.373ZM41.932,75.325l-.047.112.162.027C42.088,75.467,42.123,75.54,41.932,75.325ZM28.523,84.7a6.669,6.669,0,0,0,1.406.8c.183.059.522-.357,1.12-.8a10.135,10.135,0,0,0-1.836-.663C29.012,84.019,28.753,84.47,28.523,84.7Zm4.223.725a1.308,1.308,0,0,0,1.046.69c.351-.006.693-.471,1.043-.737-.318-.292-.637-.575-1.615-1.456C33.008,84.534,32.658,85.029,32.746,85.424Zm5.181-1.247a4.149,4.149,0,0,0-1.2.784c.233.295.466.569.84,1.031.516-.472.866-.8,1.22-1.117C38.49,84.62,38.145,84.125,37.927,84.178ZM25.084,82.43a11.625,11.625,0,0,0,1.123,1.5c.339-.554.707-.978.642-1.064a5.692,5.692,0,0,0-1.188-1.082C25.632,81.758,25.034,82.33,25.084,82.43Z" transform="translate(0 0)" fill="#a890fe"/>
  </g>
</svg>
