<svg id="html-5" xmlns="http://www.w3.org/2000/svg" width="100" height="100" viewBox="0 0 100 100">
  <path id="Path_22" data-name="Path 22" d="M100,50A50,50,0,1,1,50,0,49.917,49.917,0,0,1,100,50Z" fill="#f2f2f2"/>
  <path id="Path_23" data-name="Path 23" d="M140.989,119.474l-5.507,72.333A43.843,43.843,0,0,1,76.626,192l-5.521-72.524Z" transform="translate(-55.93 -103.246)" fill="#e64c18"/>
  <path id="Path_24" data-name="Path 24" d="M256.546,151.249v75.319l26.019-7.345,5.8-67.974Z" transform="translate(-208.348 -128.24)" fill="#f36518"/>
  <path id="Path_25" data-name="Path 25" d="M140.9,195.528l2.551,30.212h33.913l-1.11,12.48-10.674,2.891L154.467,238l-.279-7.781H143.833l1.3,15.341,20.455,5.781,20.455-5.781,2.535-30.017H152.86l-.886-9.783h0l37.445-.2.847-10.032Z" transform="translate(-115.485 -163.069)" fill="#fff"/>
  <path id="Path_26" data-name="Path 26" d="M115.876,16.8v5.191h-4.959V16.8H106.3V31.675h4.614V26.831h4.959v4.844h4.614V16.8Z" transform="translate(-85.828 -13.211)"/>
  <path id="Path_27" data-name="Path 27" d="M197.232,16.8H183.045v5.191h4.614v9.8h4.96v-9.8h4.614Z" transform="translate(-147.789 -13.211)"/>
  <path id="Path_28" data-name="Path 28" d="M355,27.487V17.337h-4.96V32.216h12.111V27.487Z" transform="translate(-282.466 -13.637)"/>
  <path id="Path_29" data-name="Path 29" d="M271.129,17.337l-3.46,5.306-3.46-5.306h-4.96V32.216h4.96V24.834l3.46,5.306,3.46-5.306v7.382h4.96V17.337Z" transform="translate(-209.47 -13.637)"/>
</svg>
