<svg id="javascript" xmlns="http://www.w3.org/2000/svg" width="100.024" height="100.024" viewBox="0 0 100.024 100.024">
  <path id="Path_14" data-name="Path 14" d="M100.024,50.012a49.759,49.759,0,1,1-3.513-18.449A49.863,49.863,0,0,1,100.024,50.012Z" fill="#e4ba42"/>
  <g id="Group_7" data-name="Group 7" transform="translate(14.45 8.833)">
    <path id="Path_15" data-name="Path 15" d="M315.352,190.393c-1.392-4.037-7.1-4.037-8.213-.7s2.645,5.29,8.491,7.239,9.466,7.1,8.77,11.693-2.645,10.58-14.2,10.58c-7.221,0-11.234-4.513-13.229-7.9l6.547-3.934s2.227,4.733,6.4,4.733,5.847-1.392,5.847-4.594c0-3.9-13.5-5.29-15.591-11.971s.7-16.148,10.44-15.452a15.106,15.106,0,0,1,11.229,5.607Z" transform="translate(-253.407 -153.712)" fill="#f2f2f2"/>
    <path id="Path_16" data-name="Path 16" d="M169.779,183.8v26.727c0,3.2-2.784,4.872-5.568,4.315s-4.037-3.9-4.037-3.9l-6.4,4.315s1.392,6.4,10.162,6.96,13.781-4.733,13.781-9.188V183.8Z" transform="translate(-138.181 -156.73)" fill="#f2f2f2"/>
    <path id="Path_17" data-name="Path 17" d="M73.968,45.213v76.343a50.037,50.037,0,0,0,6.747,5.718h57.63a50.143,50.143,0,0,0,5.477-4.479H78.447v-73.1h73.1v63.834a49.741,49.741,0,0,0,4.481-8.684V45.213Z" transform="translate(-73.968 -45.213)" fill="#f2f2f2"/>
  </g>
  <circle id="Ellipse_8" data-name="Ellipse 8" cx="7.935" cy="7.935" r="7.935" transform="translate(9.229 58.32)" fill="#3f4a43"/>
</svg>
