<svg id="linkedin" xmlns="http://www.w3.org/2000/svg" width="98.689" height="98.689" viewBox="0 0 98.689 98.689">
  <path id="Path_3" data-name="Path 3" d="M72.246,75.119v0h.025V38.92c0-17.707-3.812-31.346-24.512-31.346-9.951,0-16.629,5.461-19.355,10.638h-.288V9.227H8.489V75.115H28.926V42.49c0-8.59,1.628-16.9,12.266-16.9,10.482,0,10.638,9.8,10.638,17.447V75.119Z" transform="translate(26.418 23.571)" fill="#a890fe"/>
  <path id="Path_4" data-name="Path 4" d="M.4,7.977H20.858V73.865H.4Z" transform="translate(1.232 24.825)" fill="#a890fe"/>
  <path id="Path_5" data-name="Path 5" d="M11.851,0A11.907,11.907,0,1,0,23.7,11.851,11.855,11.855,0,0,0,11.851,0Z" fill="#a890fe"/>
</svg>
