<svg xmlns="http://www.w3.org/2000/svg" width="102.98" height="98.689" viewBox="0 0 102.98 98.689">
  <g id="paper-plane" transform="translate(0)">
    <path id="Path_6" data-name="Path 6" d="M8.75,17.612v19.9a3.217,3.217,0,0,0,5.81,1.905L26.2,23.576Z" transform="translate(28.795 57.958)" fill="#a890fe"/>
    <path id="Path_7" data-name="Path 7" d="M101.629.6A3.219,3.219,0,0,0,98.273.365L1.729,50.782a3.22,3.22,0,0,0,.446,5.9l26.839,9.174L86.173,16.983,41.943,70.271,86.924,85.645a3.293,3.293,0,0,0,1.038.172,3.215,3.215,0,0,0,3.184-2.742l11.8-79.38A3.224,3.224,0,0,0,101.629.6Z" transform="translate(0 0)" fill="#a890fe"/>
  </g>
</svg>
