<svg id="php" xmlns="http://www.w3.org/2000/svg" width="102" height="102" viewBox="0 0 102 102">
  <path id="Path_18" data-name="Path 18" d="M102,51A51.005,51.005,0,0,1,6.8,76.452,51.016,51.016,0,1,1,102,51Z" fill="#8f9ed1"/>
  <g id="Group_8" data-name="Group 8" transform="translate(1.799 24.597)">
    <path id="Path_19" data-name="Path 19" d="M33.162,178.239H14.38L9.028,207.2a50.6,50.6,0,0,0,5,11.984h1.742l2.073-11.216H28.162c12.567,0,15.945-11.282,16.755-16.824A11.5,11.5,0,0,0,33.162,178.239Zm2.725,13.839c-.46,3.141-2.781,9.538-9.9,9.538H19.016l3.114-16.855h7.092C36.135,184.761,36.347,188.936,35.887,192.078Z" transform="translate(-9.028 -167.328)" fill="#f2f2f2"/>
    <path id="Path_20" data-name="Path 20" d="M373.164,179.554a12.288,12.288,0,0,0-5.7-1.316H348.684l-7.567,40.944h8.955l2.073-11.216h10.321a14.876,14.876,0,0,0,11.894-5.2,51.388,51.388,0,0,0-1.2-23.215Zm-2.973,12.523c-.46,3.141-2.781,9.538-9.907,9.538H353.32l3.114-16.855h7.092C370.439,184.76,370.651,188.936,370.191,192.077Z" transform="translate(-274.959 -167.327)" fill="#f2f2f2"/>
    <path id="Path_21" data-name="Path 21" d="M207.46,134.515H196.584l2.042-11.047h-8.918l-7.567,40.943h8.918l4.352-23.545h5.7c3.783,0,6.351.811,5.81,4.324s-3.648,19.052-3.648,19.052h9.053s3.513-17.3,4.054-22.16S212.46,134.515,207.46,134.515Z" transform="translate(-147.653 -123.468)" fill="#f2f2f2"/>
  </g>
</svg>
