<svg id="sass" xmlns="http://www.w3.org/2000/svg" width="100.597" height="100.597" viewBox="0 0 100.597 100.597">
  <path id="Path_12" data-name="Path 12" d="M100.6,50.3q0,2.331-.209,4.607-.16,1.8-.452,3.56A50.334,50.334,0,1,1,100.6,50.3Z" fill="#f2f2f2"/>
  <path id="Path_13" data-name="Path 13" d="M106.991,92.037c-1.525.577-1.464.587-2.271-.883a12.759,12.759,0,0,1-1.626-5.982,13.867,13.867,0,0,1,1.1-5.221c.5-1.332-.152-1.8-1.306-1.924a12.575,12.575,0,0,0-2.548.008c-2.189.224-2.4.413-2.985,2.538A21.637,21.637,0,0,1,96.159,84.3c-1.412,2.946-3.018,5.783-4.664,8.6a7.374,7.374,0,0,1-.957,1.486A11.152,11.152,0,0,1,88.8,88.559a14.784,14.784,0,0,1,1.213-5.82.916.916,0,0,0-.507-1.3,2.2,2.2,0,0,0-.778-.255,11.858,11.858,0,0,0-4.174.289,1.45,1.45,0,0,0-1.156,1.207,18.424,18.424,0,0,1-1.246,3.932q-2.34,5.254-4.669,10.515c-1.355,3.045-2.689,6.1-4.295,9.021-.113.207-.207.567-.491.495s-.187-.425-.2-.667a17.312,17.312,0,0,1,.778-5.015c.634-2.605,1.328-5.2,2-7.8a1.33,1.33,0,0,0-.749-1.6,2.281,2.281,0,0,0-2.737.181,16.755,16.755,0,0,0,.144-2.919c-.1-2.073-1.064-3.422-2.737-3.734a5.631,5.631,0,0,0-3.47.645,17.517,17.517,0,0,0-6.313,5.227,2.287,2.287,0,0,1-.7.651q-4.844,2.639-9.678,5.295a.587.587,0,0,1-.836-.131,45.006,45.006,0,0,0-5.369-4.629,59.579,59.579,0,0,1-7.549-6.422,12.413,12.413,0,0,1-2.958-4.913,11.263,11.263,0,0,1,1.265-8.754,26.026,26.026,0,0,1,7.263-8,70,70,0,0,1,14.9-8.694c5.929-2.6,12.08-4.27,18.631-4.018a16.409,16.409,0,0,1,7.426,1.821,5.509,5.509,0,0,1,3.026,4.106,10.043,10.043,0,0,1-1.168,6.253,24.227,24.227,0,0,1-9.9,9.891,32.9,32.9,0,0,1-11.16,3.97,20.6,20.6,0,0,1-6.58.261,10.165,10.165,0,0,1-6.582-3.26.616.616,0,0,0-.79-.232c-.347.168-.32.476-.287.772a2.673,2.673,0,0,0,.152.6,7.09,7.09,0,0,0,2.338,3.008c2.632,2.141,5.751,2.77,9.025,2.833a37.419,37.419,0,0,0,9.483-1.09c7.044-1.683,12.944-5.139,17.251-11.06a18.9,18.9,0,0,0,4.061-11.9,10.414,10.414,0,0,0-3.108-7.364A17.427,17.427,0,0,0,78.809,45.6a32.594,32.594,0,0,0-11.025-.48,45.488,45.488,0,0,0-9.456,2.1,84.369,84.369,0,0,0-13.583,6.028,58.26,58.26,0,0,0-12.324,8.863,29.338,29.338,0,0,0-7.631,10.916,10.009,10.009,0,0,0-.706,5.732,16.174,16.174,0,0,0,3.507,6.791,45.474,45.474,0,0,0,8.783,7.707c2.556,1.835,5.231,3.507,7.686,5.479.7.558.692.558-.127.988-.957.5-1.924.979-2.864,1.511a41.865,41.865,0,0,0-10.448,7.7,11.829,11.829,0,0,0-2.938,5.36,50.458,50.458,0,0,0,8.606,9.819c5.586-.435,9.863-3.342,13.022-8.15a16.721,16.721,0,0,0,2.509-7.721,18.05,18.05,0,0,0-.731-7.14c-.125-.411-.591-.819-.408-1.18.17-.333.684-.5,1.061-.719,1.523-.885,3.051-1.757,4.619-2.659a1.347,1.347,0,0,1-.121.747c-.9,3.3-1.525,6.625-.842,10.054a14,14,0,0,0,2.48,5.913,3.8,3.8,0,0,0,5.736-.049,27.375,27.375,0,0,0,2.806-5.124c.452-.969.866-1.954,1.3-2.934a32.706,32.706,0,0,0-.033,3.474,6.755,6.755,0,0,0,.811,3.242,2.363,2.363,0,0,0,3.268.907,7.255,7.255,0,0,0,2.878-3A139.379,139.379,0,0,0,82.62,93.743c.485-1.176.981-2.351,1.53-3.658.084.429.14.692.191.955a25.025,25.025,0,0,0,2.706,7.481,1.06,1.06,0,0,1-.1,1.332c-1.2,1.632-2.513,3.168-3.808,4.72a40.623,40.623,0,0,0-3.172,3.991c-.825,1.293-.351,2.617,1.022,2.911a5.87,5.87,0,0,0,1.3.111,13.7,13.7,0,0,0,6.678-1.92c2.778-1.583,4.424-3.9,4.348-7.206a11.406,11.406,0,0,0-1.047-4.324.731.731,0,0,1,.06-.815,80.016,80.016,0,0,0,5.186-8.616,7.5,7.5,0,0,1,.92-1.616c.06.207.107.337.133.47a23.3,23.3,0,0,0,2.423,7.07c.345.6.173.907-.3,1.31a18.847,18.847,0,0,0-4.11,4.882,9.2,9.2,0,0,0-1.419,4.7,2.509,2.509,0,0,0,3.293,2.558,14.654,14.654,0,0,0,5.3-2.41c3.48-2.548,4.5-5.235,3.41-8.986-.427-1.476-.419-1.451,1.061-1.9a21.546,21.546,0,0,1,9.823-.48q.561.092,1.109.211.289-1.758.452-3.56A20.937,20.937,0,0,0,106.991,92.037Zm-68.41,26.412a7.012,7.012,0,0,1-2.911.4,2.241,2.241,0,0,1-2.111-2.293,8.247,8.247,0,0,1,1.024-4.225c1.209-2.423,3.24-4.067,5.311-5.681a61.013,61.013,0,0,1,6.366-4.215c.663-.394.673-.39.825.4a11.7,11.7,0,0,1,.308,2.952A13.644,13.644,0,0,1,38.581,118.449ZM68.715,90.571a34.08,34.08,0,0,1-1.922,6.742c-1.1,2.993-2.18,6-3.57,8.879a6.978,6.978,0,0,1-1.168,1.862c-.486.511-.918.452-1.254-.173a8.881,8.881,0,0,1-.682-3.562A20.519,20.519,0,0,1,64.542,91.7a5.531,5.531,0,0,1,3.03-2.166C68.448,89.315,68.853,89.668,68.715,90.571Zm19.134,14.636a9.222,9.222,0,0,1-3.94,3.632c-.177.088-.4.244-.564.037s.092-.324.2-.448c1.645-1.8,3.268-3.607,4.732-5.555.023-.031.078-.035.2-.088A4.843,4.843,0,0,1,87.849,105.207Zm11.355-.07c-.244.115-.528.33-.766.146-.263-.2-.158-.563-.078-.838a14.686,14.686,0,0,1,1.57-3.574,13.22,13.22,0,0,1,2.1-2.533c.32-.308.464-.271.573.173a6.025,6.025,0,0,1,.131,1.369A5.532,5.532,0,0,1,99.2,105.137Z" transform="translate(-19.211 -36.046)" fill="#cd6699"/>
</svg>
