<svg xmlns="http://www.w3.org/2000/svg" width="101.485" height="108.854" viewBox="0 0 101.485 108.854">
  <path id="share" d="M71.983,77.365a18.706,18.706,0,0,0-2.519,3.153L37.581,61.165a18.245,18.245,0,0,0,0-13.628L69.474,28.33a18.547,18.547,0,1,0-1.664-3.306L35.876,44.256a18.453,18.453,0,1,0,0,20.19L67.8,83.825a18.436,18.436,0,1,0,4.181-6.46ZM85.03,3.69A14.761,14.761,0,1,1,70.269,18.451,14.778,14.778,0,0,1,85.03,3.69ZM20.45,69.112A14.761,14.761,0,1,1,35.211,54.351,14.778,14.778,0,0,1,20.45,69.112ZM95.466,100.85a14.76,14.76,0,1,1,4.325-10.438A14.777,14.777,0,0,1,95.466,100.85Z" transform="translate(-1.997)" fill="#a890fe"/>
</svg>
